<?xml version="1.0" encoding="UTF-8" standalone="no"?>
<!-- Created with Inkscape (http://www.inkscape.org/) -->

<svg
   width="58.910221mm"
   height="25.090929mm"
   viewBox="0 0 58.910221 25.090929"
   version="1.1"
   id="svg1"
   inkscape:export-filename="quadrants.svg"
   inkscape:export-xdpi="96"
   inkscape:export-ydpi="96"
   xmlns:inkscape="http://www.inkscape.org/namespaces/inkscape"
   xmlns:sodipodi="http://sodipodi.sourceforge.net/DTD/sodipodi-0.dtd"
   xmlns="http://www.w3.org/2000/svg"
   xmlns:svg="http://www.w3.org/2000/svg">
  <sodipodi:namedview
     id="namedview1"
     pagecolor="#ffffff"
     bordercolor="#000000"
     borderopacity="0.25"
     inkscape:showpageshadow="2"
     inkscape:pageopacity="0.0"
     inkscape:pagecheckerboard="0"
     inkscape:deskcolor="#d1d1d1"
     inkscape:document-units="mm"
     inkscape:export-bgcolor="#ffffff80">
    <inkscape:page
       x="0"
       y="0"
       width="58.910221"
       height="25.090929"
       id="page2"
       margin="0"
       bleed="0" />
  </sodipodi:namedview>
  <defs
     id="defs1">
    <clipPath
       clipPathUnits="userSpaceOnUse"
       id="clipPath29">
      <path
         d="m 101.78933,75.579467 -21.07333,21.18 v 42.336003 l 21.07333,21.168 h 42.15734 l 21.084,-21.168 V 96.759467 l -21.084,-21.18 z"
         id="path29" />
    </clipPath>
    <clipPath
       clipPathUnits="userSpaceOnUse"
       id="clipPath27">
      <path
         d="M -76.341504,-120.1263 H 405.54851 V 560.18871 H -76.341504 Z"
         id="path27" />
    </clipPath>
    <clipPath
       clipPathUnits="userSpaceOnUse"
       id="clipPath33">
      <path
         d="m 75.590667,154.16347 v 10.584 h 10.786666 l 31.370667,-31.752 -10.548,-10.584 z"
         id="path33" />
    </clipPath>
    <clipPath
       clipPathUnits="userSpaceOnUse"
       id="clipPath31">
      <path
         d="M -56.692901,-53.251404 H 425.19711 V 627.06361 H -56.692901 Z"
         id="path31" />
    </clipPath>
    <clipPath
       clipPathUnits="userSpaceOnUse"
       id="clipPath37">
      <path
         d="m 159.14267,70.875467 -31.36,31.752003 10.53733,10.584 31.62,-31.752003 v -10.584 z"
         id="path37" />
    </clipPath>
    <clipPath
       clipPathUnits="userSpaceOnUse"
       id="clipPath35">
      <path
         d="M -127.4556,-123.6547 H 354.43441 V 556.66031 H -127.4556 Z"
         id="path35" />
    </clipPath>
    <clipPath
       clipPathUnits="userSpaceOnUse"
       id="clipPath41">
      <path
         d="m 75.74,70.9848 v 10.833333 l 31.62133,31.502667 10.536,-10.584 L 86.276,70.9848 Z"
         id="path41" />
    </clipPath>
    <clipPath
       clipPathUnits="userSpaceOnUse"
       id="clipPath39">
      <path
         d="M -56.805301,-123.5726 H 425.08471 V 556.74241 H -56.805301 Z"
         id="path39" />
    </clipPath>
    <clipPath
       clipPathUnits="userSpaceOnUse"
       id="clipPath45">
      <path
         d="m 127.15867,133.4728 31.62133,31.752 h 10.536 V 154.37947 L 137.70667,122.8888 Z"
         id="path45" />
    </clipPath>
    <clipPath
       clipPathUnits="userSpaceOnUse"
       id="clipPath43">
      <path
         d="M -126.9873,-52.892904 H 354.90271 V 627.42211 H -126.9873 Z"
         id="path43" />
    </clipPath>
    <clipPath
       clipPathUnits="userSpaceOnUse"
       id="clipPath48">
      <path
         d="m 101.12267,117.92747 21.084,21.168 21.07333,-21.168 -21.07333,-21.168003 z"
         id="path48" />
    </clipPath>
    <clipPath
       clipPathUnits="userSpaceOnUse"
       id="clipPath46">
      <path
         d="M -75.842102,-88.365602 H 406.04791 V 591.94941 H -75.842102 Z"
         id="path46" />
    </clipPath>
  </defs>
  <g
     inkscape:label="Layer 1"
     inkscape:groupmode="layer"
     id="layer1"
     transform="translate(-124.35417,-83.608333)">
    <path
       id="path26"
       d="m 131.3518,85.036317 h 11.02501 l 5.48428,5.50933 v 11.072283 l -5.48428,5.50968 H 131.3518 l -5.48428,-5.50968 V 90.545647 Z"
       style="fill:#ffffff;fill-opacity:1;fill-rule:evenodd;stroke:none;stroke-width:0.352778" />
    <g
       id="g28"
       clip-path="url(#clipPath29)"
       transform="matrix(0.26458333,0,0,0.26458333,104.35414,64.881697)">
      <path
         d="M 0,0 H 31.618 L 47.431,-15.885 V -47.637 L 31.618,-63.512 H 0 l -15.805,15.875 v 31.752 z"
         style="fill:none;stroke:#000000;stroke-width:0.892;stroke-linecap:butt;stroke-linejoin:miter;stroke-miterlimit:10;stroke-dasharray:none;stroke-opacity:1"
         transform="matrix(1.3333333,0,0,-1.3333333,101.78867,75.5804)"
         clip-path="url(#clipPath27)"
         id="path28" />
    </g>
    <path
       id="path30"
       d="m 124.51144,108.31365 v -2.57704 l 8.20596,-8.246533 2.56752,2.579863 -8.14317,8.24371 z"
       style="fill:#ffffff;fill-opacity:1;fill-rule:evenodd;stroke:none;stroke-width:0.352778" />
    <g
       id="g32"
       clip-path="url(#clipPath33)"
       transform="matrix(0.26458333,0,0,0.26458333,104.35414,64.881697)">
      <path
         d="M 0,0 V 7.938 L 23.707,31.752 31.618,23.814 8.09,0 Z"
         style="fill:none;stroke:#000000;stroke-width:0.892;stroke-linecap:butt;stroke-linejoin:miter;stroke-miterlimit:10;stroke-dasharray:none;stroke-opacity:1"
         transform="matrix(1.3333333,0,0,-1.3333333,75.590533,164.74693)"
         clip-path="url(#clipPath31)"
         id="path32" />
    </g>
    <path
       id="path34"
       d="m 149.1603,83.791611 v 2.577041 l -8.20914,8.243711 -2.56434,-2.577042 8.14,-8.24371 z"
       style="fill:#ffffff;fill-opacity:1;fill-rule:evenodd;stroke:none;stroke-width:0.352778" />
    <g
       id="g36"
       clip-path="url(#clipPath37)"
       transform="matrix(0.26458333,0,0,0.26458333,104.35414,64.881697)">
      <path
         d="m 0,0 v -7.938 l -23.716,-23.814 -7.902,7.938 L -8.098,0 Z"
         style="fill:none;stroke:#000000;stroke-width:0.892;stroke-linecap:butt;stroke-linejoin:miter;stroke-miterlimit:10;stroke-dasharray:none;stroke-opacity:1"
         transform="matrix(1.3333333,0,0,-1.3333333,169.9408,70.875867)"
         clip-path="url(#clipPath35)"
         id="path36" />
    </g>
    <path
       id="path38"
       d="m 124.55109,83.820539 h 2.56434 l 8.20914,8.24371 -2.56752,2.577042 -8.20596,-8.174566 z"
       style="fill:#ffffff;fill-opacity:1;fill-rule:evenodd;stroke:none;stroke-width:0.352778" />
    <g
       id="g40"
       clip-path="url(#clipPath41)"
       transform="matrix(0.26458333,0,0,0.26458333,104.35414,64.881697)">
      <path
         d="M 0,0 H 7.902 L 31.618,-23.814 23.716,-31.752 0,-8.125 Z"
         style="fill:none;stroke:#000000;stroke-width:0.892;stroke-linecap:butt;stroke-linejoin:miter;stroke-miterlimit:10;stroke-dasharray:none;stroke-opacity:1"
         transform="matrix(1.3333333,0,0,-1.3333333,75.7404,70.985333)"
         clip-path="url(#clipPath39)"
         id="path40" />
    </g>
    <path
       id="path42"
       d="m 148.99513,108.44016 h -2.56434 l -8.20914,-8.24371 2.56752,-2.579867 8.20596,8.177387 z"
       style="fill:#ffffff;fill-opacity:1;fill-rule:evenodd;stroke:none;stroke-width:0.352778" />
    <g
       id="g44"
       clip-path="url(#clipPath45)"
       transform="matrix(0.26458333,0,0,0.26458333,104.35414,64.881697)">
      <path
         d="m 0,0 h -7.902 l -23.716,23.814 7.911,7.938 L 0,8.134 Z"
         style="fill:none;stroke:#000000;stroke-width:0.892;stroke-linecap:butt;stroke-linejoin:miter;stroke-miterlimit:10;stroke-dasharray:none;stroke-opacity:1"
         transform="matrix(1.3333333,0,0,-1.3333333,169.3164,165.22493)"
         clip-path="url(#clipPath43)"
         id="path44" />
    </g>
    <g
       id="g47"
       clip-path="url(#clipPath48)"
       transform="matrix(0.26458333,0,0,0.26458333,104.35414,64.881697)">
      <path
         d="M 0,0 15.813,15.876 31.618,0 15.813,-15.876 Z"
         style="fill:none;stroke:#000000;stroke-width:1.784;stroke-linecap:butt;stroke-linejoin:miter;stroke-miterlimit:10;stroke-dasharray:none;stroke-opacity:1"
         transform="matrix(1.3333333,0,0,-1.3333333,101.1228,117.928)"
         clip-path="url(#clipPath46)"
         id="path47" />
    </g>
    <path
       id="path49"
       d="m 134.54282,85.681994 c -0.12403,0.03307 -0.25218,0.111621 -0.25218,0.256315 0,0.119889 0.10335,0.190169 0.1819,0.190169 h 0.004 c 0.0413,0 0.0868,-0.02894 0.0868,-0.07028 0,-0.04134 -0.0165,-0.05788 -0.0207,-0.05788 -0.0661,-0.0124 -0.11162,-0.05374 -0.11162,-0.111621 0,-0.06201 0.0455,-0.111621 0.13229,-0.152962 z m 1.2237,0.103353 h -0.38448 v 0.05374 c 0.11576,0.0083 0.14883,0.03307 0.1571,0.103353 0.004,0.04548 0.0124,0.11989 0.0124,0.260449 v 0.276986 h -0.004 l -0.60358,-0.694531 h -0.29352 v 0.05374 c 0.0661,0.0083 0.10335,0.02067 0.13229,0.05788 0.0289,0.03721 0.0331,0.06615 0.0331,0.169499 v 0.326595 c 0,0.14056 -0.0124,0.21084 -0.0165,0.264583 -0.008,0.06615 -0.0413,0.09095 -0.13229,0.09922 v 0.05374 h 0.38861 v -0.05374 c -0.11989,-0.0041 -0.1447,-0.03721 -0.15296,-0.103353 -0.004,-0.04961 -0.0124,-0.119889 -0.0124,-0.260449 v -0.3514 h 0.004 l 0.65732,0.785482 h 0.0744 v -0.624252 c 0,-0.140559 0.008,-0.214973 0.0124,-0.264583 0.008,-0.07028 0.0413,-0.09508 0.12816,-0.09922 z m 0.44441,0.310058 c -0.17363,0 -0.3762,0.128158 -0.3762,0.384473 0,0.169499 0.12402,0.3514 0.37207,0.3514 0.1819,0 0.3638,-0.128158 0.3638,-0.380339 0,-0.190169 -0.14056,-0.355534 -0.35967,-0.355534 z m -0.0207,0.06201 c 0.0992,0 0.15296,0.11989 0.15296,0.338998 0,0.235644 -0.062,0.272851 -0.11988,0.272851 -0.0992,0 -0.16123,-0.152962 -0.16123,-0.347265 0,-0.181901 0.062,-0.264584 0.12815,-0.264584 z m 0,0"
       style="fill:#000000;fill-opacity:1;fill-rule:nonzero;stroke:none;stroke-width:0.352778"
       aria-label="‘No" />
    <path
       id="path50"
       d="m 136.96232,86.26077 v -0.165365 c -0.0992,0.02894 -0.19431,0.04548 -0.28939,0.05788 v 0.04547 c 0.0744,0.01654 0.0868,0.02481 0.0868,0.103353 v 0.343132 c 0,0.09922 -0.0124,0.107487 -0.0992,0.115755 v 0.04961 h 0.42994 v -0.04961 c -0.11989,-0.0083 -0.12815,-0.01654 -0.12815,-0.115755 v -0.293522 c 0.0248,-0.06201 0.0579,-0.08268 0.0868,-0.08268 0.0248,0 0.0455,0.0124 0.0744,0.03307 0.008,0.0124 0.0248,0.01654 0.0455,0.0083 0.0413,-0.01654 0.0786,-0.06201 0.0786,-0.115755 0,-0.05374 -0.0455,-0.09922 -0.10335,-0.09922 -0.062,0 -0.11989,0.06615 -0.17777,0.165365 z m 0,0"
       style="fill:#000000;fill-opacity:1;fill-rule:nonzero;stroke:none;stroke-width:0.352778"
       aria-label="r" />
    <path
       id="path51"
       d="m 137.79637,86.75273 -0.0124,-0.05374 c -0.0289,0.0124 -0.0538,0.01654 -0.0827,0.01654 -0.0331,0 -0.0868,-0.0124 -0.0868,-0.136426 V 86.19049 h 0.14469 c 0.0248,-0.0124 0.0248,-0.05788 0.008,-0.07441 H 137.6142 V 85.8887 l -0.0248,-0.0124 -0.17776,0.124024 v 0.115755 h -0.062 l -0.0455,0.05374 0.008,0.02067 h 0.0992 v 0.44235 c 0,0.14056 0.0744,0.198438 0.1943,0.198438 0.0124,0 0.0372,-0.0083 0.062,-0.02067 z m 0.85163,0.05788 V 86.761 c -0.0786,-0.0124 -0.0868,-0.01654 -0.0868,-0.115755 v -0.289388 c 0,-0.173633 -0.0827,-0.26045 -0.21911,-0.26045 -0.0786,0 -0.1571,0.04548 -0.21084,0.09922 v -0.491959 c -0.0951,0.0248 -0.2067,0.04548 -0.28939,0.05788 v 0.04547 c 0.0827,0.0124 0.091,0.0083 0.091,0.103353 v 0.735873 c 0,0.09922 -0.0124,0.107487 -0.0992,0.115755 v 0.04961 h 0.37208 v -0.04961 c -0.0661,-0.0083 -0.0744,-0.02481 -0.0744,-0.107487 v -0.396875 c 0.0372,-0.03307 0.0786,-0.04547 0.11576,-0.04547 0.062,0 0.11162,0.04134 0.11162,0.16123 v 0.28112 c 0,0.08268 -0.004,0.09509 -0.0786,0.107487 v 0.04961 z m 0.1788,-1.116211 c -0.0455,0 -0.0909,0.03307 -0.0909,0.07441 0,0.03721 0.0165,0.05374 0.0248,0.05788 0.0661,0.0124 0.10749,0.05374 0.10749,0.111621 0,0.05788 -0.0455,0.111621 -0.13229,0.152962 l 0.0207,0.05374 c 0.12402,-0.03721 0.25218,-0.115755 0.25218,-0.256315 0,-0.11989 -0.10336,-0.194304 -0.1819,-0.194304 z m 0,0"
       style="fill:#000000;fill-opacity:1;fill-rule:nonzero;stroke:none;stroke-width:0.352778"
       aria-label="th’" />
    <path
       id="path52"
       d="m 134.49011,88.912805 c -0.11575,-0.05788 -0.26458,-0.157097 -0.3638,-0.227377 0.18603,-0.05788 0.34727,-0.248047 0.34727,-0.51263 0,-0.310058 -0.23565,-0.520898 -0.5209,-0.520898 -0.36381,0 -0.55397,0.264583 -0.55397,0.541569 0,0.14056 0.0496,0.268717 0.14056,0.367936 0.0868,0.09508 0.23564,0.148828 0.33486,0.157096 0.19844,0.157097 0.31833,0.21084 0.37207,0.223242 0.0579,0.01654 0.15296,0.02894 0.23151,0.0124 z m -0.59531,-0.26045 c -0.16123,-0.04961 -0.25632,-0.248047 -0.25632,-0.496093 0,-0.243913 0.10749,-0.438217 0.28112,-0.438217 0.18604,0 0.3142,0.19017 0.3142,0.504362 0,0.256316 -0.0951,0.388607 -0.16537,0.417546 -0.0165,-0.0083 -0.0289,-0.02067 -0.0413,-0.02894 z m 1.48518,-0.04134 -0.0372,-0.0041 c -0.0579,-0.0083 -0.0661,-0.02067 -0.0661,-0.103353 v -0.51263 c -0.0372,0.0041 -0.0868,0.0124 -0.1447,0.01654 -0.0537,0.0041 -0.11162,0.0083 -0.15709,0.0124 v 0.04547 l 0.0496,0.0124 c 0.0413,0.0083 0.0496,0.01654 0.0496,0.09095 v 0.384472 c -0.0331,0.03307 -0.0661,0.04134 -0.11163,0.04134 -0.0537,0 -0.10748,-0.03721 -0.10748,-0.136426 v -0.23151 c 0,-0.09095 0,-0.169499 0.008,-0.235645 -0.0455,0.0041 -0.0992,0.0124 -0.15297,0.01654 -0.0537,0.0041 -0.10335,0.0083 -0.14056,0.0124 v 0.04547 l 0.0331,0.0124 c 0.0413,0.0083 0.0537,0.01654 0.0537,0.09095 v 0.322461 c 0,0.14056 0.0744,0.227376 0.20671,0.227376 0.0455,0 0.0909,-0.02067 0.13229,-0.04961 0.0372,-0.02067 0.0537,-0.03721 0.0785,-0.05788 v 0.09508 l 0.0165,0.0124 c 0.0455,-0.0124 0.0951,-0.02481 0.1447,-0.03307 0.0537,-0.0124 0.0951,-0.02067 0.14469,-0.02481 z m 0.74931,0.01654 -0.0165,-0.04961 c -0.0165,0.0083 -0.0331,0.0124 -0.0537,0.0124 -0.0248,0 -0.0496,-0.02067 -0.0496,-0.09508 V 88.23481 c 0,-0.08682 -0.0124,-0.152962 -0.0827,-0.206706 -0.0413,-0.03307 -0.0868,-0.04547 -0.15297,-0.04547 -0.091,0.01654 -0.20257,0.07028 -0.26045,0.111621 -0.0372,0.02894 -0.0579,0.04961 -0.0579,0.07441 0,0.04134 0.0579,0.07855 0.0992,0.07855 0.0331,0 0.0579,-0.0124 0.0661,-0.05374 0.0165,-0.04548 0.0289,-0.08268 0.0455,-0.107487 0.0165,-0.01654 0.0331,-0.02894 0.0537,-0.02894 0.0579,0 0.0951,0.05788 0.0951,0.157096 v 0.04548 c -0.0372,0.03307 -0.1571,0.07028 -0.25219,0.103352 -0.0785,0.03307 -0.11989,0.07028 -0.11989,0.152963 0,0.09508 0.0827,0.202571 0.21498,0.202571 0.0289,0 0.10335,-0.05374 0.16536,-0.09508 0.004,0.02067 0.0165,0.04134 0.0372,0.06201 0.0207,0.01654 0.0537,0.03307 0.0992,0.03307 z m -0.31419,-0.05374 c -0.0248,0.01654 -0.0413,0.02481 -0.0661,0.02481 -0.0372,0 -0.0951,-0.03307 -0.0951,-0.119889 0,-0.05374 0.0248,-0.08268 0.0744,-0.107487 0.0331,-0.01654 0.0579,-0.03307 0.0868,-0.04961 z m 1.16788,0.03307 -0.0331,-0.0041 c -0.0661,-0.0083 -0.0744,-0.0124 -0.0744,-0.103353 v -0.909505 c -0.0827,0.0248 -0.20671,0.04547 -0.30593,0.05788 v 0.04961 c 0.0951,0.0124 0.10335,0.01654 0.10335,0.103353 v 0.190169 c -0.0331,-0.0041 -0.0537,-0.0083 -0.0661,-0.0083 -0.24391,0 -0.42995,0.173633 -0.42995,0.388607 0,0.235644 0.18604,0.347265 0.32246,0.347265 0.0165,0 0.0413,-0.0083 0.0786,-0.02894 l 0.0951,-0.06201 v 0.09095 c 0.12403,-0.03721 0.27286,-0.05374 0.31006,-0.06201 z m -0.31006,-0.03307 c -0.0331,0.02067 -0.0579,0.02481 -0.0868,0.02481 -0.0703,0 -0.18604,-0.07441 -0.18604,-0.268718 0,-0.239778 0.11989,-0.281119 0.1571,-0.281119 0.0496,0 0.0909,0.02894 0.11575,0.08268 z m 0.6656,-0.425814 v -0.165364 c -0.0992,0.02894 -0.19431,0.04547 -0.28939,0.05788 v 0.04548 c 0.0744,0.01654 0.0868,0.0248 0.0868,0.103353 v 0.343131 c 0,0.09922 -0.0124,0.107487 -0.0992,0.115755 v 0.04961 h 0.42994 v -0.04961 c -0.11989,-0.0083 -0.12815,-0.01654 -0.12815,-0.115755 v -0.293522 c 0.0248,-0.06201 0.0579,-0.08268 0.0868,-0.08268 0.0248,0 0.0455,0.0124 0.0744,0.03307 0.008,0.0124 0.0248,0.01654 0.0455,0.0083 0.0413,-0.01654 0.0786,-0.06201 0.0786,-0.115756 0,-0.05374 -0.0455,-0.09922 -0.10335,-0.09922 -0.062,0 -0.11989,0.06614 -0.17777,0.165364 z m 1.02009,0.479558 -0.0165,-0.04961 c -0.0165,0.0083 -0.0331,0.0124 -0.0537,0.0124 -0.0248,0 -0.0496,-0.02067 -0.0496,-0.09508 V 88.23481 c 0,-0.08682 -0.0124,-0.152962 -0.0827,-0.206706 -0.0413,-0.03307 -0.0868,-0.04547 -0.15296,-0.04547 -0.091,0.01654 -0.20257,0.07028 -0.26045,0.111621 -0.0372,0.02894 -0.0579,0.04961 -0.0579,0.07441 0,0.04134 0.0579,0.07855 0.0992,0.07855 0.0331,0 0.0579,-0.0124 0.0661,-0.05374 0.0165,-0.04548 0.0289,-0.08268 0.0455,-0.107487 0.0165,-0.01654 0.0331,-0.02894 0.0537,-0.02894 0.0579,0 0.0951,0.05788 0.0951,0.157096 v 0.04548 c -0.0372,0.03307 -0.1571,0.07028 -0.25218,0.103352 -0.0785,0.03307 -0.11989,0.07028 -0.11989,0.152963 0,0.09508 0.0827,0.202571 0.21497,0.202571 0.0289,0 0.10335,-0.05374 0.16537,-0.09508 0.004,0.02067 0.0165,0.04134 0.0372,0.06201 0.0207,0.01654 0.0538,0.03307 0.0992,0.03307 z m -0.31419,-0.05374 c -0.0248,0.01654 -0.0413,0.02481 -0.0661,0.02481 -0.0372,0 -0.0951,-0.03307 -0.0951,-0.119889 0,-0.05374 0.0248,-0.08268 0.0744,-0.107487 0.0331,-0.01654 0.0579,-0.03307 0.0868,-0.04961 z m 1.18029,0.124024 v -0.04961 c -0.0827,-0.0124 -0.0909,-0.01654 -0.0909,-0.115755 V 88.23481 c 0,-0.157097 -0.0786,-0.252181 -0.20671,-0.252181 -0.0455,0 -0.0744,0.0124 -0.12402,0.04547 -0.0331,0.02067 -0.0661,0.04547 -0.0951,0.06615 v -0.115755 c -0.0951,0.02894 -0.19844,0.04961 -0.28525,0.06201 v 0.04134 c 0.0744,0.01654 0.0827,0.02067 0.0827,0.115755 v 0.326595 c 0,0.107487 -0.004,0.107487 -0.10335,0.124023 v 0.04961 h 0.38034 v -0.04961 c -0.0662,-0.0083 -0.0744,-0.01654 -0.0744,-0.115755 v -0.380338 c 0.0413,-0.02894 0.0744,-0.04961 0.11576,-0.04961 0.0579,0 0.10748,0.03721 0.10748,0.148828 v 0.268718 c 0,0.111621 -0.008,0.119889 -0.0744,0.128157 v 0.04961 z m 0.5426,-0.05788 -0.0124,-0.05374 c -0.0289,0.0124 -0.0538,0.01654 -0.0827,0.01654 -0.0331,0 -0.0868,-0.0124 -0.0868,-0.136426 V 88.07773 h 0.14469 c 0.0248,-0.0124 0.0248,-0.05788 0.008,-0.07441 h -0.15296 v -0.227376 l -0.0248,-0.0124 -0.17776,0.124023 v 0.115755 h -0.062 l -0.0455,0.05374 0.008,0.02067 h 0.0992 v 0.44235 c 0,0.14056 0.0744,0.198437 0.1943,0.198437 0.0124,0 0.0372,-0.0083 0.062,-0.02067 z m 0,0"
       style="fill:#000000;fill-opacity:1;fill-rule:nonzero;stroke:none;stroke-width:0.352778"
       aria-label="Quadrant" />
    <path
       id="path53"
       d="m 134.45601,102.93055 c -0.12403,0.0331 -0.25218,0.11162 -0.25218,0.25631 0,0.11989 0.10335,0.19017 0.1819,0.19017 h 0.004 c 0.0413,0 0.0868,-0.0289 0.0868,-0.0703 0,-0.0413 -0.0165,-0.0579 -0.0207,-0.0579 -0.0661,-0.0124 -0.11162,-0.0537 -0.11162,-0.11163 0,-0.062 0.0455,-0.11162 0.13229,-0.15296 z m 0.77721,0.34726 c -0.0124,-0.0951 -0.0207,-0.16536 -0.0289,-0.22324 -0.0289,-0.0124 -0.11575,-0.0413 -0.21911,-0.0413 -0.22324,0 -0.35966,0.13229 -0.35966,0.30593 0,0.15296 0.11162,0.23564 0.27285,0.31832 0.11989,0.0662 0.19017,0.12403 0.19017,0.21498 0,0.0992 -0.062,0.16536 -0.16123,0.16536 -0.14883,0 -0.24392,-0.17777 -0.27285,-0.27698 l -0.0579,0.0207 c 0.0124,0.0909 0.0331,0.22324 0.0496,0.26458 0.0207,0.008 0.0496,0.0207 0.0951,0.0331 0.0455,0.0165 0.10335,0.0248 0.1571,0.0248 0.23151,0 0.38447,-0.14056 0.38447,-0.32246 0,-0.15297 -0.11575,-0.24392 -0.28112,-0.32246 -0.13643,-0.0703 -0.1943,-0.11989 -0.1943,-0.20671 0,-0.0909 0.0661,-0.1571 0.15296,-0.1571 0.12816,0 0.18603,0.11576 0.21911,0.21498 z m 0.52193,0.0661 c -0.17363,0 -0.3762,0.12816 -0.3762,0.38447 0,0.1695 0.12402,0.3514 0.37207,0.3514 0.1819,0 0.3638,-0.12815 0.3638,-0.38034 0,-0.19016 -0.14056,-0.35553 -0.35967,-0.35553 z m -0.0207,0.062 c 0.0992,0 0.15296,0.11989 0.15296,0.339 0,0.23564 -0.062,0.27285 -0.11988,0.27285 -0.0992,0 -0.16124,-0.15296 -0.16124,-0.34726 0,-0.18191 0.062,-0.26459 0.12816,-0.26459 z m 1.28054,0.56638 -0.0372,-0.004 c -0.0579,-0.008 -0.0662,-0.0207 -0.0662,-0.10335 v -0.51263 c -0.0372,0.004 -0.0868,0.0124 -0.14469,0.0165 -0.0537,0.004 -0.11162,0.008 -0.1571,0.0124 v 0.0455 l 0.0496,0.0124 c 0.0413,0.008 0.0496,0.0165 0.0496,0.091 v 0.38447 c -0.0331,0.0331 -0.0661,0.0413 -0.11162,0.0413 -0.0537,0 -0.10749,-0.0372 -0.10749,-0.13643 v -0.23151 c 0,-0.0909 0,-0.1695 0.008,-0.23564 -0.0455,0.004 -0.0992,0.0124 -0.15296,0.0165 -0.0538,0.004 -0.10336,0.008 -0.14056,0.0124 v 0.0455 l 0.0331,0.0124 c 0.0413,0.008 0.0537,0.0165 0.0537,0.091 v 0.32246 c 0,0.14056 0.0744,0.22737 0.20671,0.22737 0.0455,0 0.091,-0.0207 0.13229,-0.0496 0.0372,-0.0207 0.0538,-0.0372 0.0786,-0.0579 v 0.0951 l 0.0165,0.0124 c 0.0455,-0.0124 0.0951,-0.0248 0.14469,-0.0331 0.0537,-0.0124 0.0951,-0.0207 0.14469,-0.0248 z m 0.53434,0.0289 -0.0124,-0.0537 c -0.0289,0.0124 -0.0537,0.0165 -0.0827,0.0165 -0.0331,0 -0.0868,-0.0124 -0.0868,-0.13643 v -0.3886 h 0.14469 c 0.0248,-0.0124 0.0248,-0.0579 0.008,-0.0744 h -0.15296 v -0.22738 l -0.0248,-0.0124 -0.17776,0.12403 v 0.11575 h -0.062 l -0.0455,0.0537 0.008,0.0207 h 0.0992 v 0.44235 c 0,0.14056 0.0744,0.19843 0.1943,0.19843 0.0124,0 0.0372,-0.008 0.062,-0.0207 z m 0.85163,0.0579 v -0.0496 c -0.0786,-0.0124 -0.0868,-0.0165 -0.0868,-0.11575 v -0.28939 c 0,-0.17363 -0.0827,-0.26045 -0.21911,-0.26045 -0.0785,0 -0.15709,0.0455 -0.21084,0.0992 v -0.49196 c -0.0951,0.0248 -0.2067,0.0455 -0.28939,0.0579 v 0.0455 c 0.0827,0.0124 0.0909,0.008 0.0909,0.10336 v 0.73587 c 0,0.0992 -0.0124,0.10748 -0.0992,0.11575 v 0.0496 h 0.37207 v -0.0496 c -0.0661,-0.008 -0.0744,-0.0248 -0.0744,-0.10748 v -0.39688 c 0.0372,-0.0331 0.0786,-0.0455 0.11576,-0.0455 0.062,0 0.11162,0.0413 0.11162,0.16123 v 0.28112 c 0,0.0827 -0.004,0.0951 -0.0786,0.10748 v 0.0496 z m 0.1788,-1.11621 c -0.0455,0 -0.0909,0.0331 -0.0909,0.0744 0,0.0372 0.0165,0.0537 0.0248,0.0579 0.0661,0.0124 0.10749,0.0538 0.10749,0.11162 0,0.0579 -0.0455,0.11163 -0.13229,0.15297 l 0.0207,0.0537 c 0.12403,-0.0372 0.25219,-0.11576 0.25219,-0.25632 0,-0.11988 -0.10336,-0.1943 -0.18191,-0.1943 z m 0,0"
       style="fill:#000000;fill-opacity:1;fill-rule:nonzero;stroke:none;stroke-width:0.352778"
       aria-label="‘South’" />
    <path
       id="path54"
       d="m 134.4157,106.16136 c -0.11576,-0.0579 -0.26458,-0.15709 -0.3638,-0.22737 0.18603,-0.0579 0.34726,-0.24805 0.34726,-0.51263 0,-0.31006 -0.23564,-0.5209 -0.5209,-0.5209 -0.3638,0 -0.55397,0.26458 -0.55397,0.54157 0,0.14056 0.0496,0.26872 0.14056,0.36793 0.0868,0.0951 0.23565,0.14883 0.33487,0.1571 0.19843,0.1571 0.31832,0.21084 0.37207,0.22324 0.0579,0.0165 0.15296,0.0289 0.23151,0.0124 z m -0.59531,-0.26044 c -0.16123,-0.0496 -0.25632,-0.24805 -0.25632,-0.4961 0,-0.24391 0.10749,-0.43821 0.28112,-0.43821 0.18604,0 0.31419,0.19016 0.31419,0.50436 0,0.25631 -0.0951,0.3886 -0.16536,0.41754 -0.0165,-0.008 -0.0289,-0.0207 -0.0413,-0.0289 z m 1.48621,-0.0413 -0.0372,-0.004 c -0.0579,-0.008 -0.0661,-0.0207 -0.0661,-0.10335 v -0.51263 c -0.0372,0.004 -0.0868,0.0124 -0.1447,0.0165 -0.0537,0.004 -0.11162,0.008 -0.15709,0.0124 v 0.0455 l 0.0496,0.0124 c 0.0413,0.008 0.0496,0.0165 0.0496,0.091 v 0.38448 c -0.0331,0.0331 -0.0661,0.0413 -0.11162,0.0413 -0.0538,0 -0.10749,-0.0372 -0.10749,-0.13643 v -0.23151 c 0,-0.0909 0,-0.1695 0.008,-0.23564 -0.0455,0.004 -0.0992,0.0124 -0.15297,0.0165 -0.0537,0.004 -0.10335,0.008 -0.14056,0.0124 v 0.0455 l 0.0331,0.0124 c 0.0413,0.008 0.0537,0.0165 0.0537,0.091 v 0.32246 c 0,0.14056 0.0744,0.22738 0.20671,0.22738 0.0455,0 0.0909,-0.0207 0.13229,-0.0496 0.0372,-0.0207 0.0537,-0.0372 0.0785,-0.0579 v 0.0951 l 0.0165,0.0124 c 0.0455,-0.0124 0.0951,-0.0248 0.1447,-0.0331 0.0537,-0.0124 0.0951,-0.0207 0.14469,-0.0248 z m 0.74931,0.0165 -0.0165,-0.0496 c -0.0165,0.008 -0.0331,0.0124 -0.0537,0.0124 -0.0248,0 -0.0496,-0.0207 -0.0496,-0.0951 v -0.26045 c 0,-0.0868 -0.0124,-0.15296 -0.0827,-0.20671 -0.0413,-0.0331 -0.0868,-0.0455 -0.15296,-0.0455 -0.0909,0.0165 -0.20258,0.0703 -0.26045,0.11162 -0.0372,0.0289 -0.0579,0.0496 -0.0579,0.0744 0,0.0413 0.0579,0.0785 0.0992,0.0785 0.0331,0 0.0579,-0.0124 0.0661,-0.0537 0.0165,-0.0455 0.0289,-0.0827 0.0455,-0.10749 0.0165,-0.0165 0.0331,-0.0289 0.0537,-0.0289 0.0579,0 0.0951,0.0579 0.0951,0.1571 v 0.0455 c -0.0372,0.0331 -0.1571,0.0703 -0.25218,0.10336 -0.0786,0.0331 -0.11989,0.0703 -0.11989,0.15296 0,0.0951 0.0827,0.20257 0.21497,0.20257 0.0289,0 0.10335,-0.0537 0.16537,-0.0951 0.004,0.0207 0.0165,0.0413 0.0372,0.062 0.0207,0.0165 0.0537,0.0331 0.0992,0.0331 z m -0.31419,-0.0537 c -0.0248,0.0165 -0.0413,0.0248 -0.0661,0.0248 -0.0372,0 -0.0951,-0.0331 -0.0951,-0.11989 0,-0.0537 0.0248,-0.0827 0.0744,-0.10748 0.0331,-0.0165 0.0579,-0.0331 0.0868,-0.0496 z m 1.16685,0.0331 -0.0331,-0.004 c -0.0661,-0.008 -0.0744,-0.0124 -0.0744,-0.10336 v -0.9095 c -0.0827,0.0248 -0.2067,0.0455 -0.30592,0.0579 v 0.0496 c 0.0951,0.0124 0.10335,0.0165 0.10335,0.10336 v 0.19017 c -0.0331,-0.004 -0.0537,-0.008 -0.0661,-0.008 -0.24392,0 -0.42995,0.17363 -0.42995,0.38861 0,0.23564 0.18603,0.34726 0.32246,0.34726 0.0165,0 0.0413,-0.008 0.0786,-0.0289 l 0.0951,-0.062 v 0.091 c 0.12403,-0.0372 0.27285,-0.0537 0.31006,-0.062 z m -0.31006,-0.0331 c -0.0331,0.0207 -0.0579,0.0248 -0.0868,0.0248 -0.0703,0 -0.18604,-0.0744 -0.18604,-0.26872 0,-0.23977 0.11989,-0.28112 0.1571,-0.28112 0.0496,0 0.0909,0.0289 0.11575,0.0827 z m 0.66663,-0.42582 v -0.16536 c -0.0992,0.0289 -0.19431,0.0455 -0.28939,0.0579 v 0.0455 c 0.0744,0.0165 0.0868,0.0248 0.0868,0.10335 v 0.34314 c 0,0.0992 -0.0124,0.10748 -0.0992,0.11575 v 0.0496 h 0.42995 v -0.0496 c -0.11989,-0.008 -0.12816,-0.0165 -0.12816,-0.11575 v -0.29353 c 0.0248,-0.062 0.0579,-0.0827 0.0868,-0.0827 0.0248,0 0.0455,0.0124 0.0744,0.0331 0.008,0.0124 0.0248,0.0165 0.0455,0.008 0.0413,-0.0165 0.0786,-0.062 0.0786,-0.11575 0,-0.0537 -0.0455,-0.0992 -0.10335,-0.0992 -0.062,0 -0.11989,0.0661 -0.17777,0.16536 z m 1.02009,0.47956 -0.0165,-0.0496 c -0.0165,0.008 -0.0331,0.0124 -0.0538,0.0124 -0.0248,0 -0.0496,-0.0207 -0.0496,-0.0951 v -0.26045 c 0,-0.0868 -0.0124,-0.15296 -0.0827,-0.20671 -0.0413,-0.0331 -0.0868,-0.0455 -0.15296,-0.0455 -0.0909,0.0165 -0.20257,0.0703 -0.26045,0.11162 -0.0372,0.0289 -0.0579,0.0496 -0.0579,0.0744 0,0.0413 0.0579,0.0785 0.0992,0.0785 0.0331,0 0.0579,-0.0124 0.0661,-0.0537 0.0165,-0.0455 0.0289,-0.0827 0.0455,-0.10749 0.0165,-0.0165 0.0331,-0.0289 0.0537,-0.0289 0.0579,0 0.0951,0.0579 0.0951,0.1571 v 0.0455 c -0.0372,0.0331 -0.1571,0.0703 -0.25218,0.10336 -0.0786,0.0331 -0.11989,0.0703 -0.11989,0.15296 0,0.0951 0.0827,0.20257 0.21497,0.20257 0.0289,0 0.10336,-0.0537 0.16537,-0.0951 0.004,0.0207 0.0165,0.0413 0.0372,0.062 0.0207,0.0165 0.0537,0.0331 0.0992,0.0331 z m -0.31419,-0.0537 c -0.0248,0.0165 -0.0413,0.0248 -0.0661,0.0248 -0.0372,0 -0.0951,-0.0331 -0.0951,-0.11989 0,-0.0537 0.0248,-0.0827 0.0744,-0.10748 0.0331,-0.0165 0.0579,-0.0331 0.0868,-0.0496 z m 1.17925,0.12402 v -0.0496 c -0.0827,-0.0124 -0.091,-0.0165 -0.091,-0.11575 v -0.29766 c 0,-0.1571 -0.0785,-0.25218 -0.2067,-0.25218 -0.0455,0 -0.0744,0.0124 -0.12403,0.0455 -0.0331,0.0207 -0.0661,0.0455 -0.0951,0.0661 v -0.11576 c -0.0951,0.0289 -0.19844,0.0496 -0.28525,0.062 v 0.0413 c 0.0744,0.0165 0.0827,0.0207 0.0827,0.11575 v 0.3266 c 0,0.10748 -0.004,0.10748 -0.10335,0.12402 v 0.0496 h 0.38033 v -0.0496 c -0.0661,-0.008 -0.0744,-0.0165 -0.0744,-0.11575 v -0.38034 c 0.0413,-0.0289 0.0744,-0.0496 0.11575,-0.0496 0.0579,0 0.10749,0.0372 0.10749,0.14883 v 0.26871 c 0,0.11162 -0.008,0.11989 -0.0744,0.12816 v 0.0496 z m 0.54364,-0.0579 -0.0124,-0.0537 c -0.0289,0.0124 -0.0538,0.0165 -0.0827,0.0165 -0.0331,0 -0.0868,-0.0124 -0.0868,-0.13643 v -0.38861 h 0.14469 c 0.0248,-0.0124 0.0248,-0.0579 0.008,-0.0744 h -0.15296 v -0.22738 l -0.0248,-0.0124 -0.17777,0.12402 v 0.11576 h -0.062 l -0.0455,0.0537 0.008,0.0207 h 0.0992 v 0.44235 c 0,0.14056 0.0744,0.19844 0.1943,0.19844 0.0124,0 0.0372,-0.008 0.062,-0.0207 z m 0,0"
       style="fill:#000000;fill-opacity:1;fill-rule:nonzero;stroke:none;stroke-width:0.352778"
       aria-label="Quadrant" />
    <path
       id="path55"
       d="m 147.23042,94.384305 c -0.0331,-0.124023 -0.11162,-0.252181 -0.25632,-0.252181 -0.11989,0 -0.19017,0.103353 -0.19017,0.181901 v 0.0041 c 0,0.04134 0.0289,0.08682 0.0703,0.08682 0.0413,0 0.0579,-0.01654 0.0579,-0.02067 0.0124,-0.06615 0.0537,-0.111621 0.11162,-0.111621 0.062,0 0.11162,0.04547 0.15296,0.132292 z m -0.85576,0.926042 c -0.0703,-0.02894 -0.11989,-0.05788 -0.15297,-0.09095 -0.0413,-0.03307 -0.0537,-0.09095 -0.0537,-0.169499 0,-0.06201 0.004,-0.115755 0.0165,-0.144693 0.0165,-0.02894 0.0537,-0.03721 0.12815,-0.03721 h 0.27699 v 0.107487 c 0,0.132292 -0.008,0.152963 -0.11989,0.173633 v 0.05788 h 0.31419 v -0.05788 c -0.10748,-0.02067 -0.11575,-0.04134 -0.11575,-0.173633 v -0.107487 h 0.33486 c 0.0496,0 0.0538,0.0083 0.0538,0.06615 v 0.07441 c 0,0.08682 -0.0124,0.132292 -0.0413,0.157097 -0.0248,0.02894 -0.0785,0.04961 -0.13229,0.06201 l 0.004,0.05788 c 0.0992,-0.0041 0.21084,-0.0124 0.23978,-0.0124 v -0.744141 h -0.0579 c -0.008,0.111621 -0.0165,0.128158 -0.15296,0.128158 h -0.60358 c -0.13643,0 -0.1447,-0.01654 -0.1571,-0.148828 h -0.0537 v 0.802018 c 0.0455,0.0124 0.19016,0.04548 0.26044,0.05788 z m -0.20257,0.802018 0.0496,-0.01654 c -0.008,-0.01654 -0.0124,-0.03307 -0.0124,-0.05374 0,-0.02481 0.0207,-0.04961 0.0951,-0.04961 h 0.26045 c 0.0868,0 0.15296,-0.0124 0.2067,-0.08268 0.0331,-0.04134 0.0455,-0.08682 0.0455,-0.152962 -0.0165,-0.09095 -0.0703,-0.202572 -0.11162,-0.260449 -0.0289,-0.03721 -0.0496,-0.05788 -0.0744,-0.05788 -0.0413,0 -0.0785,0.05788 -0.0785,0.09922 0,0.03307 0.0124,0.05788 0.0537,0.06615 0.0455,0.01654 0.0827,0.02894 0.10748,0.04547 0.0165,0.01654 0.0289,0.03307 0.0289,0.05374 0,0.05788 -0.0579,0.09508 -0.15709,0.09508 h -0.0455 c -0.0331,-0.03721 -0.0703,-0.157096 -0.10335,-0.252181 -0.0331,-0.07855 -0.0703,-0.119889 -0.15296,-0.119889 -0.0951,0 -0.20258,0.08268 -0.20258,0.214974 0,0.02894 0.0538,0.103353 0.0951,0.165364 -0.0207,0.0041 -0.0413,0.01654 -0.062,0.03721 -0.0165,0.02067 -0.0331,0.05374 -0.0331,0.09922 z m 0.0537,-0.314193 c -0.0165,-0.0248 -0.0248,-0.04134 -0.0248,-0.06615 0,-0.03721 0.0331,-0.09508 0.11989,-0.09508 0.0538,0 0.0827,0.0248 0.10749,0.07441 0.0165,0.03307 0.0331,0.05788 0.0496,0.08682 z m 0.38447,0.849561 c 0.0289,-0.0041 0.14056,-0.02481 0.17777,-0.03721 0.0165,-0.03721 0.0289,-0.07855 0.0289,-0.152963 0,-0.165364 -0.0992,-0.264583 -0.22325,-0.264583 -0.13642,0 -0.19843,0.128158 -0.23564,0.202572 -0.0455,0.09508 -0.0827,0.115755 -0.12816,0.115755 -0.0496,0 -0.0868,-0.03307 -0.0868,-0.08268 0,-0.09508 0.11162,-0.169499 0.21084,-0.206706 l -0.008,-0.04547 c -0.0744,0 -0.18604,0.01654 -0.21084,0.0248 -0.0207,0.03307 -0.0538,0.115755 -0.0538,0.198438 0,0.132291 0.0786,0.281119 0.23565,0.281119 0.12402,0 0.17777,-0.08268 0.23151,-0.210839 0.0372,-0.08268 0.0744,-0.115756 0.12402,-0.115756 0.0496,0 0.0827,0.03721 0.0827,0.07855 0,0.07441 -0.0661,0.124023 -0.16124,0.165364 z m -0.45062,0.58601 0.0537,-0.0124 c -0.0124,-0.02894 -0.0165,-0.05374 -0.0165,-0.08268 0,-0.03307 0.0124,-0.08682 0.13643,-0.08682 h 0.3886 v 0.144694 c 0.0124,0.02481 0.0579,0.02481 0.0744,0.0083 v -0.152963 h 0.22737 l 0.0124,-0.0248 -0.12402,-0.177767 h -0.11575 v -0.06201 l -0.0537,-0.04548 -0.0207,0.0083 v 0.09922 h -0.44235 c -0.14056,0 -0.19844,0.07441 -0.19844,0.194303 0,0.0124 0.008,0.03721 0.0207,0.06201 z m 1.05834,0.165365 c 0,-0.04547 -0.0331,-0.09095 -0.0744,-0.09095 -0.0372,0 -0.0537,0.01654 -0.0579,0.02481 -0.0124,0.06615 -0.0537,0.107487 -0.11162,0.107487 -0.0579,0 -0.11162,-0.04547 -0.15296,-0.132292 l -0.0537,0.02067 c 0.0372,0.124023 0.11575,0.252181 0.25631,0.252181 0.11989,0 0.19431,-0.103353 0.19431,-0.181901 z m 0,0"
       style="fill:#000000;fill-opacity:1;fill-rule:nonzero;stroke:none;stroke-width:0.352778"
       aria-label="‘East’" />
    <path
       id="path56"
       d="m 143.99857,93.673237 c 0.0579,-0.115755 0.1571,-0.264583 0.22738,-0.363802 0.0579,0.186035 0.24804,0.347266 0.51263,0.347266 0.31005,0 0.52089,-0.235645 0.52089,-0.520899 0,-0.363802 -0.26458,-0.553971 -0.54156,-0.553971 -0.14056,0 -0.26872,0.04961 -0.36794,0.14056 -0.0951,0.08682 -0.14883,0.235644 -0.1571,0.334863 -0.15709,0.198437 -0.21084,0.318327 -0.22324,0.37207 -0.0165,0.05788 -0.0289,0.152963 -0.0124,0.231511 z m 0.26045,-0.595312 c 0.0496,-0.161231 0.24805,-0.256315 0.49609,-0.256315 0.24392,0 0.43822,0.107486 0.43822,0.281119 0,0.186035 -0.19017,0.314193 -0.50436,0.314193 -0.25632,0 -0.38861,-0.09508 -0.41755,-0.165365 0.008,-0.01654 0.0207,-0.02894 0.0289,-0.04134 z m 0.0413,1.486214 0.004,-0.03721 c 0.008,-0.05788 0.0207,-0.06615 0.10336,-0.06615 h 0.51263 c -0.004,-0.03721 -0.0124,-0.08682 -0.0165,-0.144694 -0.004,-0.05374 -0.008,-0.111621 -0.0124,-0.157097 h -0.0455 l -0.0124,0.04961 c -0.008,0.04134 -0.0165,0.04961 -0.091,0.04961 h -0.38447 c -0.0331,-0.03307 -0.0413,-0.06615 -0.0413,-0.111621 0,-0.05374 0.0372,-0.107487 0.13642,-0.107487 h 0.23151 c 0.0909,0 0.1695,0 0.23565,0.0083 -0.004,-0.04548 -0.0124,-0.09922 -0.0165,-0.152962 -0.004,-0.05374 -0.008,-0.103353 -0.0124,-0.14056 h -0.0455 l -0.0124,0.03307 c -0.008,0.04134 -0.0165,0.05374 -0.091,0.05374 h -0.32246 c -0.14056,0 -0.22738,0.07441 -0.22738,0.206705 0,0.04547 0.0207,0.09095 0.0496,0.132292 0.0207,0.03721 0.0372,0.05374 0.0579,0.07855 h -0.0951 l -0.0124,0.01654 c 0.0124,0.04548 0.0248,0.09508 0.0331,0.144694 0.0124,0.05374 0.0207,0.09508 0.0248,0.144694 z m -0.0165,0.749308 0.0496,-0.01654 c -0.008,-0.01654 -0.0124,-0.03307 -0.0124,-0.05374 0,-0.02481 0.0207,-0.04961 0.0951,-0.04961 h 0.26045 c 0.0868,0 0.15297,-0.0124 0.20671,-0.08268 0.0331,-0.04134 0.0455,-0.08682 0.0455,-0.152962 -0.0165,-0.09095 -0.0703,-0.202572 -0.11163,-0.260449 -0.0289,-0.03721 -0.0496,-0.05788 -0.0744,-0.05788 -0.0413,0 -0.0785,0.05788 -0.0785,0.09922 0,0.03307 0.0124,0.05788 0.0537,0.06615 0.0455,0.01654 0.0827,0.02894 0.10748,0.04547 0.0165,0.01654 0.0289,0.03307 0.0289,0.05374 0,0.05788 -0.0579,0.09508 -0.1571,0.09508 h -0.0455 c -0.0331,-0.03721 -0.0703,-0.157096 -0.10335,-0.252181 -0.0331,-0.07855 -0.0703,-0.119889 -0.15297,-0.119889 -0.0951,0 -0.20257,0.08268 -0.20257,0.214974 0,0.02894 0.0538,0.103353 0.0951,0.165364 -0.0207,0.0041 -0.0413,0.01654 -0.062,0.03721 -0.0165,0.02067 -0.0331,0.05374 -0.0331,0.09922 z m 0.0538,-0.314193 c -0.0165,-0.0248 -0.0248,-0.04134 -0.0248,-0.06615 0,-0.03721 0.0331,-0.09508 0.11989,-0.09508 0.0537,0 0.0827,0.0248 0.10749,0.07441 0.0165,0.03307 0.0331,0.05788 0.0496,0.08682 z m -0.0331,1.166854 0.004,-0.03307 c 0.008,-0.06615 0.0124,-0.07441 0.10335,-0.07441 h 0.90951 c -0.0248,-0.08268 -0.0455,-0.206706 -0.0579,-0.305924 h -0.0496 c -0.0124,0.09508 -0.0165,0.103352 -0.10335,0.103352 h -0.19017 c 0.004,-0.03307 0.008,-0.05374 0.008,-0.06614 0,-0.243913 -0.17363,-0.429948 -0.3886,-0.429948 -0.23565,0 -0.34727,0.186035 -0.34727,0.322461 0,0.01654 0.008,0.04134 0.0289,0.07855 l 0.062,0.09508 h -0.0909 c 0.0372,0.124024 0.0538,0.272852 0.062,0.310059 z m 0.0331,-0.310059 c -0.0207,-0.03307 -0.0248,-0.05788 -0.0248,-0.08682 0,-0.07028 0.0744,-0.186035 0.26872,-0.186035 0.23978,0 0.28112,0.119889 0.28112,0.157096 0,0.04961 -0.0289,0.09095 -0.0827,0.115755 z m 0.42581,0.666627 h 0.16537 c -0.0289,-0.09922 -0.0455,-0.194304 -0.0579,-0.289389 h -0.0455 c -0.0165,0.07442 -0.0248,0.08682 -0.10335,0.08682 h -0.34313 c -0.0992,0 -0.10749,-0.0124 -0.11576,-0.09922 h -0.0496 v 0.429948 h 0.0496 c 0.008,-0.119889 0.0165,-0.128157 0.11576,-0.128157 h 0.29352 c 0.062,0.0248 0.0827,0.05788 0.0827,0.08682 0,0.0248 -0.0124,0.04547 -0.0331,0.07441 -0.0124,0.0083 -0.0165,0.0248 -0.008,0.04548 0.0165,0.04134 0.062,0.07855 0.11576,0.07855 0.0537,0 0.0992,-0.04547 0.0992,-0.103352 0,-0.06201 -0.0662,-0.11989 -0.16537,-0.177768 z m -0.47956,1.020092 0.0496,-0.01653 c -0.008,-0.01653 -0.0124,-0.03307 -0.0124,-0.05374 0,-0.0248 0.0207,-0.04961 0.0951,-0.04961 h 0.26045 c 0.0868,0 0.15297,-0.0124 0.20671,-0.08268 0.0331,-0.04134 0.0455,-0.08682 0.0455,-0.152962 -0.0165,-0.09095 -0.0703,-0.202572 -0.11163,-0.260449 -0.0289,-0.03721 -0.0496,-0.05788 -0.0744,-0.05788 -0.0413,0 -0.0785,0.05788 -0.0785,0.09922 0,0.03307 0.0124,0.05788 0.0537,0.06615 0.0455,0.01654 0.0827,0.02894 0.10748,0.04548 0.0165,0.01653 0.0289,0.03307 0.0289,0.05374 0,0.05788 -0.0579,0.09508 -0.1571,0.09508 h -0.0455 c -0.0331,-0.03721 -0.0703,-0.157096 -0.10335,-0.252181 -0.0331,-0.07855 -0.0703,-0.119889 -0.15297,-0.119889 -0.0951,0 -0.20257,0.08268 -0.20257,0.214974 0,0.02894 0.0538,0.103353 0.0951,0.165365 -0.0207,0.0041 -0.0413,0.01653 -0.062,0.03721 -0.0165,0.02067 -0.0331,0.05374 -0.0331,0.09922 z m 0.0538,-0.314193 c -0.0165,-0.0248 -0.0248,-0.04134 -0.0248,-0.06615 0,-0.03721 0.0331,-0.09508 0.11989,-0.09508 0.0537,0 0.0827,0.0248 0.10749,0.07441 0.0165,0.03307 0.0331,0.05788 0.0496,0.08682 z m -0.12403,1.179257 h 0.0496 c 0.0124,-0.08268 0.0165,-0.09095 0.11576,-0.09095 h 0.29765 c 0.1571,0 0.25219,-0.07855 0.25219,-0.206706 0,-0.04547 -0.0124,-0.07441 -0.0455,-0.124023 -0.0207,-0.03307 -0.0455,-0.06615 -0.0662,-0.09508 h 0.11576 c -0.0289,-0.09508 -0.0496,-0.198437 -0.062,-0.285254 h -0.0413 c -0.0165,0.07442 -0.0207,0.08268 -0.11576,0.08268 h -0.32659 c -0.10749,0 -0.10749,-0.0041 -0.12403,-0.103353 h -0.0496 v 0.380338 h 0.0496 c 0.008,-0.06615 0.0165,-0.07441 0.11576,-0.07441 h 0.38034 c 0.0289,0.04134 0.0496,0.07441 0.0496,0.115755 0,0.05788 -0.0372,0.107487 -0.14883,0.107487 h -0.26872 c -0.11162,0 -0.11989,-0.0083 -0.12816,-0.07441 h -0.0496 z m 0.0579,0.543636 0.0537,-0.0124 c -0.0124,-0.02894 -0.0165,-0.05374 -0.0165,-0.08268 0,-0.03307 0.0124,-0.08682 0.13642,-0.08682 h 0.38861 v 0.144694 c 0.0124,0.0248 0.0579,0.0248 0.0744,0.0083 V 98.7696 h 0.22738 l 0.0124,-0.0248 -0.12402,-0.177767 h -0.11576 v -0.06201 l -0.0537,-0.04547 -0.0207,0.0083 v 0.09922 h -0.44235 c -0.14056,0 -0.19844,0.07441 -0.19844,0.194303 0,0.0124 0.008,0.03721 0.0207,0.06201 z m 0,0"
       style="fill:#000000;fill-opacity:1;fill-rule:nonzero;stroke:none;stroke-width:0.352778"
       aria-label="Quadrant" />
    <path
       id="path57"
       d="m 129.93535,98.537024 c -0.0579,0.115755 -0.15709,0.264583 -0.22737,0.363802 -0.0579,-0.186035 -0.24805,-0.347266 -0.51263,-0.347266 -0.31006,0 -0.5209,0.235645 -0.5209,0.520899 0,0.363802 0.26458,0.553971 0.54157,0.553971 0.14056,0 0.26872,-0.04961 0.36793,-0.14056 0.0951,-0.08682 0.14883,-0.235644 0.1571,-0.334863 0.1571,-0.198438 0.21084,-0.318327 0.22324,-0.37207 0.0165,-0.05788 0.0289,-0.152963 0.0124,-0.231511 z m -0.26045,0.595312 c -0.0496,0.161231 -0.24804,0.256315 -0.49609,0.256315 -0.24391,0 -0.43822,-0.107487 -0.43822,-0.281119 0,-0.186036 0.19017,-0.314193 0.50437,-0.314193 0.25631,0 0.3886,0.09508 0.41754,0.165364 -0.008,0.01654 -0.0207,0.02894 -0.0289,0.04134 z m -0.0413,-1.486214 -0.004,0.03721 c -0.008,0.05788 -0.0207,0.06615 -0.10335,0.06615 h -0.51263 c 0.004,0.03721 0.0124,0.08682 0.0165,0.144694 0.004,0.05374 0.008,0.111621 0.0124,0.157096 h 0.0455 l 0.0124,-0.04961 c 0.008,-0.04134 0.0165,-0.04961 0.091,-0.04961 h 0.38448 c 0.0331,0.03307 0.0413,0.06615 0.0413,0.111621 0,0.05374 -0.0372,0.107487 -0.13643,0.107487 h -0.23151 c -0.0909,0 -0.1695,0 -0.23564,-0.0083 0.004,0.04547 0.0124,0.09922 0.0165,0.152962 0.004,0.05374 0.008,0.103353 0.0124,0.14056 h 0.0455 l 0.0124,-0.03307 c 0.008,-0.04134 0.0165,-0.05374 0.091,-0.05374 h 0.32246 c 0.14056,0 0.22738,-0.07441 0.22738,-0.206705 0,-0.04548 -0.0207,-0.09095 -0.0496,-0.132292 -0.0207,-0.03721 -0.0372,-0.05374 -0.0579,-0.07855 h 0.0951 l 0.0124,-0.01654 c -0.0124,-0.04547 -0.0248,-0.09508 -0.0331,-0.144694 -0.0124,-0.05374 -0.0207,-0.09508 -0.0248,-0.144694 z m 0.0165,-0.749308 -0.0496,0.01654 c 0.008,0.01654 0.0124,0.03307 0.0124,0.05374 0,0.0248 -0.0207,0.04961 -0.0951,0.04961 h -0.26045 c -0.0868,0 -0.15296,0.0124 -0.20671,0.08268 -0.0331,0.04134 -0.0455,0.08682 -0.0455,0.152962 0.0165,0.09095 0.0703,0.202571 0.11162,0.260449 0.0289,0.03721 0.0496,0.05788 0.0744,0.05788 0.0413,0 0.0785,-0.05788 0.0785,-0.09922 0,-0.03307 -0.0124,-0.05788 -0.0537,-0.06615 -0.0455,-0.01654 -0.0827,-0.02894 -0.10749,-0.04547 -0.0165,-0.01654 -0.0289,-0.03307 -0.0289,-0.05374 0,-0.05788 0.0579,-0.09508 0.1571,-0.09508 h 0.0455 c 0.0331,0.03721 0.0703,0.157096 0.10336,0.252181 0.0331,0.07855 0.0703,0.119889 0.15296,0.119889 0.0951,0 0.20257,-0.08268 0.20257,-0.214974 0,-0.02894 -0.0537,-0.103353 -0.0951,-0.165365 0.0207,-0.0041 0.0413,-0.01654 0.062,-0.03721 0.0165,-0.02067 0.0331,-0.05374 0.0331,-0.09922 z m -0.0537,0.314193 c 0.0165,0.0248 0.0248,0.04134 0.0248,0.06615 0,0.03721 -0.0331,0.09508 -0.11989,0.09508 -0.0537,0 -0.0827,-0.0248 -0.10749,-0.07441 -0.0165,-0.03307 -0.0331,-0.05788 -0.0496,-0.08682 z m 0.0331,-1.166854 -0.004,0.03307 c -0.008,0.06615 -0.0124,0.07441 -0.10336,0.07441 h -0.9095 c 0.0248,0.08268 0.0455,0.206705 0.0579,0.305924 h 0.0496 c 0.0124,-0.09508 0.0165,-0.103353 0.10336,-0.103353 h 0.19017 c -0.004,0.03307 -0.008,0.05374 -0.008,0.06615 0,0.243913 0.17363,0.429948 0.38861,0.429948 0.23564,0 0.34726,-0.186035 0.34726,-0.322461 0,-0.01654 -0.008,-0.04134 -0.0289,-0.07855 l -0.062,-0.09508 h 0.0909 c -0.0372,-0.124023 -0.0537,-0.272851 -0.062,-0.310058 z m -0.0331,0.310058 c 0.0207,0.03307 0.0248,0.05788 0.0248,0.08682 0,0.07028 -0.0744,0.186035 -0.26872,0.186035 -0.23977,0 -0.28112,-0.119889 -0.28112,-0.157096 0,-0.04961 0.0289,-0.09095 0.0827,-0.115756 z m -0.42582,-0.666626 h -0.16536 c 0.0289,0.09922 0.0455,0.194304 0.0579,0.289389 h 0.0455 c 0.0165,-0.07442 0.0248,-0.08682 0.10335,-0.08682 h 0.34314 c 0.0992,0 0.10748,0.0124 0.11575,0.09922 h 0.0496 v -0.429948 h -0.0496 c -0.008,0.119889 -0.0165,0.128157 -0.11575,0.128157 h -0.29353 c -0.062,-0.0248 -0.0827,-0.05788 -0.0827,-0.08682 0,-0.0248 0.0124,-0.04547 0.0331,-0.07441 0.0124,-0.0083 0.0165,-0.0248 0.008,-0.04547 -0.0165,-0.04134 -0.062,-0.07855 -0.11575,-0.07855 -0.0538,0 -0.0992,0.04548 -0.0992,0.103353 0,0.06201 0.0661,0.11989 0.16536,0.177767 z m 0.47956,-1.020092 -0.0496,0.01654 c 0.008,0.01653 0.0124,0.03307 0.0124,0.05374 0,0.0248 -0.0207,0.04961 -0.0951,0.04961 h -0.26045 c -0.0868,0 -0.15296,0.0124 -0.20671,0.08268 -0.0331,0.04134 -0.0455,0.08682 -0.0455,0.152963 0.0165,0.09095 0.0703,0.202571 0.11162,0.260449 0.0289,0.03721 0.0496,0.05788 0.0744,0.05788 0.0413,0 0.0785,-0.05788 0.0785,-0.09922 0,-0.03307 -0.0124,-0.05788 -0.0537,-0.06615 -0.0455,-0.01654 -0.0827,-0.02894 -0.10749,-0.04548 -0.0165,-0.01653 -0.0289,-0.03307 -0.0289,-0.05374 0,-0.05788 0.0579,-0.09508 0.1571,-0.09508 h 0.0455 c 0.0331,0.03721 0.0703,0.157096 0.10336,0.252181 0.0331,0.07855 0.0703,0.119889 0.15296,0.119889 0.0951,0 0.20257,-0.08268 0.20257,-0.214974 0,-0.02894 -0.0537,-0.103353 -0.0951,-0.165365 0.0207,-0.0041 0.0413,-0.01653 0.062,-0.03721 0.0165,-0.02067 0.0331,-0.05374 0.0331,-0.09922 z m -0.0537,0.314193 c 0.0165,0.0248 0.0248,0.04134 0.0248,0.06615 0,0.03721 -0.0331,0.09508 -0.11989,0.09508 -0.0537,0 -0.0827,-0.0248 -0.10749,-0.07441 -0.0165,-0.03307 -0.0331,-0.05788 -0.0496,-0.08682 z m 0.12402,-1.179257 h -0.0496 c -0.0124,0.08268 -0.0165,0.09095 -0.11575,0.09095 h -0.29766 c -0.1571,0 -0.25218,0.07855 -0.25218,0.206705 0,0.04548 0.0124,0.07441 0.0455,0.124024 0.0207,0.03307 0.0455,0.06615 0.0662,0.09508 h -0.11576 c 0.0289,0.09508 0.0496,0.198437 0.062,0.285254 h 0.0413 c 0.0165,-0.07442 0.0207,-0.08268 0.11575,-0.08268 h 0.3266 c 0.10748,0 0.10748,0.0041 0.12402,0.103353 h 0.0496 v -0.380339 h -0.0496 c -0.008,0.06615 -0.0165,0.07442 -0.11575,0.07442 h -0.38034 c -0.0289,-0.04134 -0.0496,-0.07442 -0.0496,-0.115756 0,-0.05788 0.0372,-0.107487 0.14883,-0.107487 h 0.26871 c 0.11162,0 0.11989,0.0083 0.12816,0.07441 h 0.0496 z m -0.0579,-0.543636 -0.0537,0.0124 c 0.0124,0.02894 0.0165,0.05374 0.0165,0.08268 0,0.03307 -0.0124,0.08682 -0.13643,0.08682 h -0.38861 v -0.144694 c -0.0124,-0.0248 -0.0579,-0.0248 -0.0744,-0.0083 v 0.152963 h -0.22738 l -0.0124,0.0248 0.12402,0.177766 h 0.11576 v 0.06201 l 0.0537,0.04548 0.0207,-0.0083 v -0.09922 h 0.44235 c 0.14056,0 0.19844,-0.07441 0.19844,-0.194304 0,-0.0124 -0.008,-0.03721 -0.0207,-0.06201 z m 0,0"
       style="fill:#000000;fill-opacity:1;fill-rule:nonzero;stroke:none;stroke-width:0.352778"
       aria-label="Quadrant" />
    <path
       id="path58"
       d="m 148.42501,107.90588 -8.35307,-8.594372"
       style="fill:none;stroke:#000000;stroke-width:0.314678;stroke-linecap:butt;stroke-linejoin:miter;stroke-miterlimit:10;stroke-dasharray:0.972256, 0.648053;stroke-dashoffset:1.09008;stroke-opacity:1" />
    <path
       id="path59"
       d="m 126.70454,98.025426 c 0.0331,0.124024 0.11162,0.252181 0.25632,0.252181 0.11989,0 0.19017,-0.103353 0.19017,-0.181901 v -0.0041 c 0,-0.04134 -0.0289,-0.08682 -0.0703,-0.08682 -0.0413,0 -0.0579,0.01654 -0.0579,0.02067 -0.0124,0.06615 -0.0537,0.111621 -0.11162,0.111621 -0.062,0 -0.11162,-0.04547 -0.15296,-0.132291 z m 0,0"
       style="fill:#000000;fill-opacity:1;fill-rule:nonzero;stroke:none;stroke-width:0.352778"
       aria-label="‘" />
    <path
       id="path60"
       d="m 126.8079,96.360413 v 0.367936 h 0.0579 c 0.008,-0.128157 0.0372,-0.132291 0.13229,-0.111621 0.091,0.02481 0.339,0.08682 0.52917,0.148828 v 0.0041 c -0.22737,0.08682 -0.46715,0.177767 -0.70693,0.264583 v 0.07441 c 0.23978,0.07441 0.47956,0.152962 0.7028,0.227376 v 0.0041 c -0.17364,0.05374 -0.35967,0.107487 -0.54157,0.157097 -0.0827,0.0248 -0.10335,0.02067 -0.11576,-0.09508 h -0.0579 v 0.463021 h 0.0579 c 0.0124,-0.09095 0.0331,-0.119889 0.1571,-0.157096 0.28112,-0.08682 0.5457,-0.165365 0.82682,-0.252181 v -0.08268 c -0.22737,-0.07441 -0.45888,-0.157096 -0.69866,-0.235644 v -0.0041 c 0.23978,-0.08682 0.46302,-0.169499 0.69866,-0.256316 v -0.08268 c -0.43821,-0.132292 -0.7152,-0.227376 -0.81855,-0.260449 -0.12816,-0.04548 -0.15296,-0.07028 -0.16537,-0.173633 z m 0,0"
       style="fill:#000000;fill-opacity:1;fill-rule:nonzero;stroke:none;stroke-width:0.352778"
       aria-label="W" />
    <path
       id="path61"
       d="m 127.63885,95.848816 c 0.0496,0.05374 0.0703,0.111621 0.0703,0.173633 0,0.115755 -0.0868,0.206705 -0.25631,0.214974 -0.004,-0.157097 -0.0207,-0.347266 -0.0248,-0.376205 -0.004,-0.03721 -0.0248,-0.04547 -0.0579,-0.04547 -0.12816,0 -0.25219,0.107487 -0.25219,0.256315 0,0.08682 0.0414,0.173633 0.11163,0.239779 0.0661,0.06615 0.16536,0.119889 0.28525,0.119889 0.1819,0 0.339,-0.115755 0.339,-0.326595 0,-0.06615 -0.0331,-0.190169 -0.17777,-0.285254 z m -0.45888,0.256315 c 0,-0.06201 0.0827,-0.09922 0.16536,-0.09922 0.0248,0 0.0289,0.0124 0.0289,0.03307 0.004,0.06615 0.004,0.124024 0.004,0.190169 -0.12402,-0.0083 -0.19843,-0.06201 -0.19843,-0.124023 z m 0.14469,-0.848527 c -0.0289,0.0041 -0.14056,0.0248 -0.17777,0.03721 -0.0165,0.03721 -0.0289,0.07855 -0.0289,0.152962 0,0.165365 0.0992,0.264583 0.22325,0.264583 0.13642,0 0.19843,-0.128157 0.23564,-0.202571 0.0455,-0.09508 0.0827,-0.115755 0.12816,-0.115755 0.0496,0 0.0868,0.03307 0.0868,0.08268 0,0.09508 -0.11162,0.169499 -0.21084,0.206706 l 0.008,0.04547 c 0.0744,0 0.18604,-0.01654 0.21084,-0.02481 0.0207,-0.03307 0.0538,-0.115755 0.0538,-0.198437 0,-0.132292 -0.0786,-0.28112 -0.23565,-0.28112 -0.12402,0 -0.17776,0.08268 -0.23151,0.21084 -0.0372,0.08268 -0.0744,0.115755 -0.12402,0.115755 -0.0496,0 -0.0827,-0.03721 -0.0827,-0.07855 0,-0.07441 0.0661,-0.124023 0.16123,-0.165365 z m 0.45062,-0.586011 -0.0537,0.0124 c 0.0124,0.02894 0.0165,0.05374 0.0165,0.08268 0,0.03307 -0.0124,0.08682 -0.13642,0.08682 h -0.38861 V 94.7078 c -0.0124,-0.0248 -0.0579,-0.0248 -0.0744,-0.0083 v 0.152962 h -0.22737 l -0.0124,0.02481 0.12402,0.177767 h 0.11575 v 0.06201 l 0.0537,0.04547 0.0207,-0.0083 v -0.09922 h 0.44235 c 0.14056,0 0.19844,-0.07441 0.19844,-0.194303 0,-0.0124 -0.008,-0.03721 -0.0207,-0.06201 z m -1.05834,-0.165364 c 0,0.04547 0.0331,0.09095 0.0744,0.09095 0.0372,0 0.0537,-0.01654 0.0579,-0.0248 0.0124,-0.06615 0.0537,-0.107487 0.11162,-0.107487 0.0579,0 0.11162,0.04547 0.15296,0.132291 l 0.0537,-0.02067 c -0.0372,-0.124024 -0.11575,-0.252181 -0.25631,-0.252181 -0.11989,0 -0.19431,0.103353 -0.19431,0.181901 z m 0,0"
       style="fill:#000000;fill-opacity:1;fill-rule:nonzero;stroke:none;stroke-width:0.352778"
       aria-label="est’" />
    <path
       id="path62"
       d="m 149.08954,108.58959 -0.66463,-0.68368 m -8.35308,-8.594375 -0.66675,-0.686153"
       style="fill:none;stroke:#000000;stroke-width:0.314678;stroke-linecap:butt;stroke-linejoin:miter;stroke-miterlimit:10;stroke-dasharray:none;stroke-opacity:1" />
    <path
       id="path63"
       d="m 148.52693,84.410522 -8.12659,8.2296"
       style="fill:none;stroke:#000000;stroke-width:0.314678;stroke-linecap:butt;stroke-linejoin:miter;stroke-miterlimit:10;stroke-dasharray:0.937683, 0.626181;stroke-dashoffset:1.05128;stroke-opacity:1" />
    <path
       id="path64"
       d="m 149.21004,83.718901 -0.68298,0.691444 m -8.12659,8.2296 -0.68333,0.691797"
       style="fill:none;stroke:#000000;stroke-width:0.314678;stroke-linecap:butt;stroke-linejoin:miter;stroke-miterlimit:10;stroke-dasharray:none;stroke-opacity:1" />
    <path
       id="path65"
       d="m 152.18435,88.941071 h -4.37056 m 0,14.552439 h 4.37056"
       style="fill:none;stroke:#000000;stroke-width:0.314678;stroke-linecap:butt;stroke-linejoin:miter;stroke-miterlimit:10;stroke-dasharray:none;stroke-opacity:1" />
    <path
       id="path66"
       d="M 152.18689,103.69187 V 88.761962"
       style="fill:none;stroke:#000000;stroke-width:0.314678;stroke-linecap:butt;stroke-linejoin:miter;stroke-miterlimit:10;stroke-dasharray:none;stroke-opacity:1" />
    <path
       id="path67"
       d="M 170.77034,105.71784 H 151.3598"
       style="fill:none;stroke:#000000;stroke-width:0.314678;stroke-linecap:butt;stroke-linejoin:miter;stroke-miterlimit:10;stroke-dasharray:none;stroke-opacity:1" />
    <path
       id="path68"
       d="m 148.99704,105.71784 2.91041,-0.78669 -0.39334,0.62935 v 0.31468 l 0.39334,0.62936"
       style="fill:#000000;fill-opacity:1;fill-rule:evenodd;stroke:none;stroke-width:0.352778" />
    <path
       id="path69"
       d="m 171.08498,86.408162 c -0.42474,0 -18.97062,-0.01623 -19.38831,-0.01588"
       style="fill:none;stroke:#000000;stroke-width:0.314678;stroke-linecap:butt;stroke-linejoin:miter;stroke-miterlimit:10;stroke-dasharray:none;stroke-opacity:1" />
    <path
       id="path70"
       d="m 149.33683,86.38929 2.91042,-0.78352 -0.39335,0.629356 -0.003,0.314678 0.39334,0.629355"
       style="fill:#000000;fill-opacity:1;fill-rule:evenodd;stroke:none;stroke-width:0.352778" />
    <path
       id="path71"
       d="m 171.04914,95.980576 -16.39923,0.07197"
       style="fill:none;stroke:#000000;stroke-width:0.314678;stroke-linecap:butt;stroke-linejoin:miter;stroke-miterlimit:10;stroke-dasharray:none;stroke-opacity:1" />
    <path
       id="path72"
       d="m 152.29008,96.06302 2.90688,-0.799041 -0.39052,0.630766 0.002,0.314678 0.39582,0.627592"
       style="fill:#000000;fill-opacity:1;fill-rule:evenodd;stroke:none;stroke-width:0.352778" />
    <path
       id="path73"
       d="m 171.43153,103.46386 v 0.0992 c 0.19843,0.0207 0.22737,0.0372 0.22737,0.28112 v 1.079 c 0,0.24391 -0.0289,0.26045 -0.25218,0.28112 v 0.0992 h 0.72761 c 0.3514,0 0.64905,-0.0744 0.85989,-0.23565 0.21498,-0.16536 0.3514,-0.41341 0.3514,-0.75654 0,-0.27285 -0.11162,-0.47129 -0.25218,-0.60358 -0.1819,-0.17363 -0.45475,-0.24391 -0.81029,-0.24391 z m 0.60771,0.31006 c 0,-0.0827 0.004,-0.12816 0.0289,-0.1571 0.0165,-0.0165 0.0744,-0.0372 0.17777,-0.0372 0.1943,0 0.34313,0.0579 0.45888,0.17364 0.1323,0.12815 0.21498,0.34313 0.21498,0.61184 0,0.5085 -0.26045,0.81856 -0.64079,0.81856 -0.19844,0 -0.23978,-0.0744 -0.23978,-0.27699 z m 2.19212,0.24391 c -0.3142,0 -0.67386,0.23151 -0.67386,0.68626 0,0.31006 0.21497,0.63252 0.66145,0.63252 0.33073,0 0.65733,-0.22738 0.65733,-0.68213 0,-0.339 -0.25218,-0.63665 -0.64492,-0.63665 z m -0.0413,0.11162 c 0.18191,0 0.28112,0.21497 0.28112,0.61185 0,0.41754 -0.11575,0.48782 -0.22324,0.48782 -0.17776,0 -0.28525,-0.27698 -0.28525,-0.62425 0,-0.32246 0.11162,-0.47542 0.22737,-0.47542 z m 1.89653,0.83509 c -0.0992,0.0868 -0.1819,0.11576 -0.30179,0.11576 -0.11989,0 -0.39274,-0.12403 -0.39274,-0.50023 0,-0.30593 0.12816,-0.41341 0.23978,-0.41341 0.0786,0 0.1695,0.0455 0.28525,0.14882 0.0248,0.0207 0.0413,0.0289 0.062,0.0289 0.0496,0 0.12403,-0.0703 0.12403,-0.15296 0,-0.0413 -0.008,-0.0744 -0.0538,-0.10335 -0.0455,-0.0372 -0.14056,-0.0703 -0.24391,-0.0703 -0.10749,0 -0.29352,0.0413 -0.47956,0.17363 -0.17776,0.13643 -0.28525,0.33486 -0.28525,0.54157 0,0.31006 0.22738,0.60358 0.61598,0.60358 0.1695,0 0.35554,-0.11989 0.48369,-0.30592 z m 1.57923,0.339 v -0.0909 c -0.0992,-0.0165 -0.14469,-0.0413 -0.23564,-0.1447 -0.0868,-0.10748 -0.33487,-0.44235 -0.40928,-0.5705 0.0827,-0.10749 0.12402,-0.15297 0.19844,-0.23151 0.0786,-0.0785 0.17776,-0.11576 0.35553,-0.1447 v -0.0868 l -0.61185,0.0248 v 0.0868 c 0.10749,0.0165 0.11989,0.0496 0.0868,0.11162 -0.0331,0.062 -0.10335,0.17776 -0.16537,0.24804 -0.0455,0.0455 -0.0992,0.0909 -0.16536,0.10749 v -1.30225 c -0.1943,0.0537 -0.39274,0.091 -0.52503,0.10336 v 0.0827 c 0.15296,0.0165 0.1695,0.0331 0.1695,0.1943 v 1.31052 c 0,0.1819 -0.0165,0.19017 -0.18604,0.21084 v 0.0909 h 0.7276 v -0.0909 c -0.16536,-0.0207 -0.18603,-0.0289 -0.18603,-0.21084 v -0.30593 c 0.008,0 0.0207,0 0.0289,0.004 0.0124,0 0.0289,0.0165 0.0579,0.0496 0.12402,0.20257 0.28112,0.45888 0.3638,0.5581 z m 0.3576,-1.46348 c 0.11576,0 0.20671,-0.0909 0.20671,-0.19844 0,-0.11162 -0.0909,-0.19843 -0.20257,-0.19843 -0.10749,0 -0.20258,0.0868 -0.20258,0.19843 0,0.10749 0.0951,0.19844 0.19844,0.19844 z m 0.38861,1.46348 v -0.0909 c -0.1695,-0.0207 -0.1819,-0.0372 -0.1819,-0.23151 v -0.96325 c -0.16123,0.0455 -0.34727,0.0827 -0.5209,0.10335 v 0.0827 c 0.13643,0.0207 0.1571,0.0289 0.1571,0.21498 v 0.56224 c 0,0.20257 -0.0165,0.21084 -0.18191,0.23151 v 0.0909 z m 1.58336,0 v -0.0909 c -0.14882,-0.0207 -0.16536,-0.0289 -0.16536,-0.20671 v -0.5333 c 0,-0.28525 -0.14056,-0.45475 -0.36794,-0.45475 -0.0827,0 -0.13642,0.0248 -0.22324,0.0785 -0.062,0.0413 -0.11989,0.0868 -0.17363,0.12402 v -0.20671 c -0.1695,0.0455 -0.35553,0.0868 -0.51263,0.10749 v 0.0786 c 0.13642,0.0289 0.14883,0.0372 0.14883,0.20671 v 0.58704 c 0,0.19017 -0.0124,0.1943 -0.18604,0.21911 v 0.0909 h 0.68213 v -0.0909 c -0.11989,-0.0165 -0.13229,-0.0289 -0.13229,-0.20257 v -0.68627 c 0.0744,-0.0579 0.13642,-0.0868 0.2067,-0.0868 0.10336,0 0.19844,0.062 0.19844,0.26458 v 0.48369 c 0,0.19844 -0.0165,0.21084 -0.13642,0.22738 v 0.0909 z m 1.44591,-1.24437 c -0.11162,0.0124 -0.26045,0.0289 -0.40928,0.0331 -0.10335,-0.0537 -0.18603,-0.0744 -0.30179,-0.0744 h -0.004 c -0.25218,0 -0.5457,0.14883 -0.5457,0.46302 0,0.17777 0.10335,0.32246 0.27698,0.3762 -0.0537,0.0537 -0.14469,0.12816 -0.28939,0.19017 -0.004,0.0372 0.0124,0.10749 0.0413,0.15297 0.0413,0.0579 0.0951,0.11162 0.21084,0.15296 -0.0703,0.0455 -0.14469,0.0868 -0.21084,0.14469 -0.0579,0.0455 -0.091,0.0868 -0.091,0.15296 0,0.1571 0.16537,0.34314 0.53331,0.34314 0.3762,0 0.7524,-0.25632 0.7524,-0.57878 0,-0.29766 -0.25631,-0.3514 -0.43408,-0.3514 -0.0909,0 -0.1695,0.008 -0.26045,0.008 -0.13642,0.004 -0.18603,-0.062 -0.18603,-0.10749 0,-0.0331 0.0207,-0.0579 0.0413,-0.0785 0.0413,0.004 0.0909,0.0124 0.14056,0.0124 0.27698,0 0.53743,-0.14882 0.53743,-0.44235 0,-0.0951 -0.0289,-0.16123 -0.0703,-0.2191 l 0.16123,0.0165 c 0.0537,-0.0331 0.10336,-0.12402 0.11989,-0.17363 z m -0.73174,0.062 c 0.14056,0 0.19844,0.16537 0.19844,0.3514 0,0.20671 -0.0579,0.32246 -0.1695,0.32246 -0.13229,0 -0.1943,-0.16123 -0.1943,-0.35967 0,-0.2067 0.0786,-0.31419 0.16536,-0.31419 z m 0.0207,1.24024 c 0.10749,0 0.1695,0.008 0.24391,0.0248 0.091,0.0248 0.16124,0.0827 0.16124,0.18604 0,0.14882 -0.12816,0.26458 -0.34314,0.26458 -0.22324,0 -0.36793,-0.13229 -0.36793,-0.27285 0,-0.0579 0.0289,-0.0992 0.0661,-0.14056 0.0413,-0.0455 0.10336,-0.062 0.23978,-0.062 z m 0,0"
       style="fill:#000000;fill-opacity:1;fill-rule:nonzero;stroke:none;stroke-width:0.352778"
       aria-label="Docking" />
    <path
       id="path74"
       d="m 171.43566,106.45489 v 0.0992 c 0.19844,0.0207 0.22324,0.0372 0.22324,0.28112 v 1.08314 c 0,0.23978 -0.0248,0.26045 -0.23978,0.28112 v 0.0951 h 0.88057 v -0.0951 c -0.24391,-0.0207 -0.26872,-0.0413 -0.26872,-0.28112 v -0.39274 l 0.19431,0.0496 c 0.0289,0 0.0744,0 0.11575,-0.004 0.30179,-0.0372 0.57878,-0.21084 0.57878,-0.59118 0,-0.1819 -0.0744,-0.3266 -0.20671,-0.41755 -0.11575,-0.0786 -0.27285,-0.10748 -0.49609,-0.10748 z m 0.59531,0.22737 c 0,-0.0455 0.008,-0.0744 0.0248,-0.091 0.0207,-0.0124 0.0537,-0.0289 0.10748,-0.0289 0.17364,0 0.3514,0.10749 0.3514,0.42582 0,0.38447 -0.22737,0.45888 -0.33072,0.45888 -0.0579,0 -0.11576,-0.0165 -0.15297,-0.0289 z m 1.3994,0.14883 c 0.11576,0 0.20671,-0.091 0.20671,-0.19844 0,-0.11162 -0.0909,-0.19843 -0.20257,-0.19843 -0.10749,0 -0.20258,0.0868 -0.20258,0.19843 0,0.10749 0.0951,0.19844 0.19844,0.19844 z m 0.38861,1.46348 v -0.0909 c -0.1695,-0.0207 -0.1819,-0.0372 -0.1819,-0.23151 v -0.96325 c -0.16123,0.0455 -0.34727,0.0827 -0.5209,0.10335 v 0.0827 c 0.13642,0.0207 0.15709,0.0289 0.15709,0.21498 v 0.56224 c 0,0.20257 -0.0165,0.21084 -0.1819,0.23151 v 0.0909 z m 1.16168,-0.34727 c -0.0992,0.0827 -0.2067,0.11989 -0.31832,0.11989 -0.20257,0 -0.36794,-0.15296 -0.38034,-0.45475 0.27698,-0.0124 0.62425,-0.0372 0.67799,-0.0455 0.062,-0.008 0.0786,-0.0455 0.0786,-0.10335 0,-0.23151 -0.19844,-0.45475 -0.45889,-0.45475 h -0.004 c -0.15296,0 -0.31006,0.0786 -0.43408,0.20257 -0.11989,0.11575 -0.20671,0.29766 -0.20671,0.51263 0,0.32246 0.20671,0.60358 0.58291,0.60358 0.11989,0 0.34313,-0.0537 0.51263,-0.31419 z m -0.46302,-0.82682 c 0.11162,0 0.17777,0.14883 0.17364,0.29352 0,0.0496 -0.0165,0.0579 -0.0579,0.0579 -0.11576,0 -0.22324,0.004 -0.339,0.008 0.0165,-0.22325 0.11576,-0.35967 0.22324,-0.35967 z m 1.19166,0.18603 v -0.30179 c -0.17777,0.0537 -0.34726,0.0868 -0.51676,0.10749 v 0.0827 c 0.13229,0.0289 0.15296,0.0413 0.15296,0.18604 v 0.62011 c 0,0.17364 -0.0248,0.18604 -0.1819,0.20258 v 0.0909 h 0.77721 v -0.0909 c -0.21911,-0.0165 -0.23151,-0.0289 -0.23151,-0.20258 v -0.52916 c 0.0455,-0.11162 0.10335,-0.14883 0.1571,-0.14883 0.0455,0 0.0827,0.0207 0.13229,0.0579 0.0165,0.0207 0.0455,0.0289 0.0868,0.0124 0.0744,-0.0289 0.13642,-0.10749 0.13642,-0.21084 0,-0.0951 -0.0785,-0.17363 -0.19017,-0.17363 -0.10748,0 -0.21497,0.11989 -0.31832,0.29765 z m 0,0"
       style="fill:#000000;fill-opacity:1;fill-rule:nonzero;stroke:none;stroke-width:0.352778"
       aria-label="Pier" />
    <path
       id="path75"
       d="m 171.43153,83.905359 v 0.09922 c 0.19843,0.02067 0.22737,0.03721 0.22737,0.281119 v 1.079004 c 0,0.243913 -0.0289,0.26045 -0.25218,0.28112 v 0.09922 h 0.72761 c 0.3514,0 0.64905,-0.07441 0.85989,-0.235645 0.21498,-0.165364 0.3514,-0.413411 0.3514,-0.756543 0,-0.272851 -0.11162,-0.471289 -0.25218,-0.60358 -0.1819,-0.173633 -0.45475,-0.243913 -0.81029,-0.243913 z m 0.60771,0.310059 c 0,-0.08268 0.004,-0.128158 0.0289,-0.157097 0.0165,-0.01654 0.0744,-0.03721 0.17777,-0.03721 0.1943,0 0.34313,0.05788 0.45888,0.173633 0.1323,0.128158 0.21498,0.343131 0.21498,0.611849 0,0.508496 -0.26045,0.818555 -0.64079,0.818555 -0.19844,0 -0.23978,-0.07442 -0.23978,-0.276986 z m 2.19212,0.243912 c -0.3142,0 -0.67386,0.231511 -0.67386,0.686263 0,0.310059 0.21497,0.63252 0.66145,0.63252 0.33073,0 0.65733,-0.227377 0.65733,-0.682129 0,-0.338997 -0.25218,-0.636654 -0.64492,-0.636654 z m -0.0413,0.111621 c 0.18191,0 0.28112,0.214974 0.28112,0.611849 0,0.417546 -0.11575,0.487826 -0.22324,0.487826 -0.17776,0 -0.28525,-0.276986 -0.28525,-0.624251 0,-0.322461 0.11162,-0.475424 0.22737,-0.475424 z m 1.89653,0.835091 c -0.0992,0.08682 -0.1819,0.115756 -0.30179,0.115756 -0.11989,0 -0.39274,-0.124024 -0.39274,-0.500228 0,-0.305925 0.12816,-0.413412 0.23978,-0.413412 0.0786,0 0.1695,0.04548 0.28525,0.148829 0.0248,0.02067 0.0413,0.02894 0.062,0.02894 0.0496,0 0.12403,-0.07028 0.12403,-0.152962 0,-0.04134 -0.008,-0.07441 -0.0538,-0.103353 -0.0455,-0.03721 -0.14056,-0.07028 -0.24391,-0.07028 -0.10749,0 -0.29352,0.04134 -0.47956,0.173633 -0.17776,0.136426 -0.28525,0.334863 -0.28525,0.541569 0,0.310059 0.22738,0.603581 0.61598,0.603581 0.1695,0 0.35554,-0.11989 0.48369,-0.305925 z m 1.57923,0.338998 v -0.09095 c -0.0992,-0.01654 -0.14469,-0.04134 -0.23564,-0.144694 -0.0868,-0.107487 -0.33487,-0.44235 -0.40928,-0.570507 0.0827,-0.107487 0.12402,-0.152963 0.19844,-0.231511 0.0786,-0.07855 0.17776,-0.115755 0.35553,-0.144694 v -0.08682 l -0.61185,0.0248 v 0.08682 c 0.10749,0.01654 0.11989,0.04961 0.0868,0.111621 -0.0331,0.06201 -0.10335,0.177767 -0.16537,0.248047 -0.0455,0.04547 -0.0992,0.09095 -0.16536,0.107487 v -1.302246 c -0.1943,0.05374 -0.39274,0.09095 -0.52503,0.103352 v 0.08268 c 0.15296,0.01654 0.1695,0.03307 0.1695,0.194303 v 1.310514 c 0,0.181901 -0.0165,0.19017 -0.18604,0.21084 v 0.09095 h 0.7276 v -0.09095 c -0.16536,-0.02067 -0.18603,-0.02894 -0.18603,-0.210839 v -0.305925 c 0.008,0 0.0207,0 0.0289,0.0041 0.0124,0 0.0289,0.01654 0.0579,0.04961 0.12402,0.202571 0.28112,0.458886 0.3638,0.558105 z m 0.3576,-1.463477 c 0.11576,0 0.20671,-0.09095 0.20671,-0.198437 0,-0.111621 -0.0909,-0.198438 -0.20257,-0.198438 -0.10749,0 -0.20258,0.08682 -0.20258,0.198438 0,0.107487 0.0951,0.198437 0.19844,0.198437 z m 0.38861,1.463477 v -0.09095 c -0.1695,-0.02067 -0.1819,-0.03721 -0.1819,-0.23151 v -0.96325 c -0.16123,0.04548 -0.34727,0.08268 -0.5209,0.103353 v 0.08268 c 0.13643,0.02067 0.1571,0.02894 0.1571,0.214974 v 0.56224 c 0,0.202572 -0.0165,0.21084 -0.18191,0.23151 v 0.09095 z m 1.58336,0 v -0.09095 c -0.14882,-0.02067 -0.16536,-0.02894 -0.16536,-0.206705 v -0.533301 c 0,-0.285254 -0.14056,-0.454753 -0.36794,-0.454753 -0.0827,0 -0.13642,0.02481 -0.22324,0.07855 -0.062,0.04134 -0.11989,0.08682 -0.17363,0.124024 v -0.206706 c -0.1695,0.04547 -0.35553,0.08682 -0.51263,0.107487 v 0.07855 c 0.13642,0.02894 0.14883,0.03721 0.14883,0.206706 v 0.587044 c 0,0.19017 -0.0124,0.194304 -0.18604,0.219108 v 0.09095 h 0.68213 v -0.09095 c -0.11989,-0.01654 -0.13229,-0.02894 -0.13229,-0.202571 V 84.76526 c 0.0744,-0.05788 0.13642,-0.08682 0.2067,-0.08682 0.10336,0 0.19844,0.06201 0.19844,0.264584 v 0.483691 c 0,0.198438 -0.0165,0.21084 -0.13642,0.227376 v 0.09095 z m 1.44591,-1.244369 c -0.11162,0.0124 -0.26045,0.02894 -0.40928,0.03307 -0.10335,-0.05374 -0.18603,-0.07441 -0.30179,-0.07441 h -0.004 c -0.25218,0 -0.5457,0.148828 -0.5457,0.463021 0,0.177767 0.10335,0.322461 0.27698,0.376205 -0.0537,0.05374 -0.14469,0.128157 -0.28939,0.190169 -0.004,0.03721 0.0124,0.107487 0.0413,0.152962 0.0413,0.05788 0.0951,0.111621 0.21084,0.152962 -0.0703,0.04548 -0.14469,0.08682 -0.21084,0.144694 -0.0579,0.04548 -0.091,0.08682 -0.091,0.152962 0,0.157097 0.16537,0.343132 0.53331,0.343132 0.3762,0 0.7524,-0.256315 0.7524,-0.578776 0,-0.297656 -0.25631,-0.3514 -0.43408,-0.3514 -0.0909,0 -0.1695,0.0083 -0.26045,0.0083 -0.13642,0.0041 -0.18603,-0.06201 -0.18603,-0.107487 0,-0.03307 0.0207,-0.05788 0.0413,-0.07855 0.0413,0.0041 0.0909,0.0124 0.14056,0.0124 0.27698,0 0.53743,-0.148829 0.53743,-0.442351 0,-0.09508 -0.0289,-0.16123 -0.0703,-0.219108 l 0.16123,0.01654 c 0.0537,-0.03307 0.10336,-0.124024 0.11989,-0.173633 z m -0.73174,0.06201 c 0.14056,0 0.19844,0.165365 0.19844,0.3514 0,0.206706 -0.0579,0.322461 -0.1695,0.322461 -0.13229,0 -0.1943,-0.161231 -0.1943,-0.359668 0,-0.206706 0.0786,-0.314193 0.16536,-0.314193 z m 0.0207,1.240234 c 0.10749,0 0.1695,0.0083 0.24391,0.02481 0.091,0.02481 0.16124,0.08268 0.16124,0.186035 0,0.148828 -0.12816,0.264584 -0.34314,0.264584 -0.22324,0 -0.36793,-0.132292 -0.36793,-0.272852 0,-0.05788 0.0289,-0.09922 0.0661,-0.14056 0.0413,-0.04548 0.10336,-0.06201 0.23978,-0.06201 z m 0,0"
       style="fill:#000000;fill-opacity:1;fill-rule:nonzero;stroke:none;stroke-width:0.352778"
       aria-label="Docking" />
    <path
       id="path76"
       d="m 171.43566,86.895357 v 0.09922 c 0.19844,0.02067 0.22324,0.03721 0.22324,0.28112 v 1.083138 c 0,0.239778 -0.0248,0.260449 -0.23978,0.28112 v 0.09508 h 0.88057 v -0.09508 c -0.24391,-0.02067 -0.26872,-0.04134 -0.26872,-0.28112 v -0.392741 l 0.19431,0.04961 c 0.0289,0 0.0744,0 0.11575,-0.0041 0.30179,-0.03721 0.57878,-0.21084 0.57878,-0.591178 0,-0.181901 -0.0744,-0.326595 -0.20671,-0.417546 -0.11575,-0.07855 -0.27285,-0.107487 -0.49609,-0.107487 z m 0.59531,0.227377 c 0,-0.04548 0.008,-0.07441 0.0248,-0.09095 0.0207,-0.0124 0.0537,-0.02894 0.10748,-0.02894 0.17364,0 0.3514,0.107487 0.3514,0.425814 0,0.384473 -0.22737,0.458887 -0.33072,0.458887 -0.0579,0 -0.11576,-0.01654 -0.15297,-0.02894 z m 1.3994,0.148828 c 0.11576,0 0.20671,-0.09095 0.20671,-0.198438 0,-0.111621 -0.0909,-0.198437 -0.20257,-0.198437 -0.10749,0 -0.20258,0.08682 -0.20258,0.198437 0,0.107487 0.0951,0.198438 0.19844,0.198438 z m 0.38861,1.463476 v -0.09095 c -0.1695,-0.02067 -0.1819,-0.03721 -0.1819,-0.231511 v -0.963248 c -0.16123,0.04547 -0.34727,0.08268 -0.5209,0.103352 v 0.08268 c 0.13642,0.02067 0.15709,0.02894 0.15709,0.214974 v 0.562239 c 0,0.202572 -0.0165,0.21084 -0.1819,0.231511 v 0.09095 z m 1.16168,-0.347265 c -0.0992,0.08268 -0.2067,0.119889 -0.31832,0.119889 -0.20257,0 -0.36794,-0.152962 -0.38034,-0.454753 0.27698,-0.0124 0.62425,-0.03721 0.67799,-0.04547 0.062,-0.0083 0.0786,-0.04548 0.0786,-0.103353 0,-0.23151 -0.19844,-0.454752 -0.45889,-0.454752 h -0.004 c -0.15296,0 -0.31006,0.07855 -0.43408,0.202571 -0.11989,0.115755 -0.20671,0.297656 -0.20671,0.51263 0,0.322461 0.20671,0.603581 0.58291,0.603581 0.11989,0 0.34313,-0.05374 0.51263,-0.314193 z m -0.46302,-0.826823 c 0.11162,0 0.17777,0.148828 0.17364,0.293522 0,0.04961 -0.0165,0.05788 -0.0579,0.05788 -0.11576,0 -0.22324,0.0041 -0.339,0.0083 0.0165,-0.223242 0.11576,-0.359668 0.22324,-0.359667 z m 1.19166,0.186035 v -0.301791 c -0.17777,0.05374 -0.34726,0.08682 -0.51676,0.107487 v 0.08268 c 0.13229,0.02894 0.15296,0.04134 0.15296,0.186035 v 0.620117 c 0,0.173633 -0.0248,0.186035 -0.1819,0.202572 v 0.09095 h 0.77721 v -0.09095 c -0.21911,-0.01654 -0.23151,-0.02894 -0.23151,-0.202572 v -0.529167 c 0.0455,-0.111621 0.10335,-0.148828 0.1571,-0.148828 0.0455,0 0.0827,0.02067 0.13229,0.05788 0.0165,0.02067 0.0455,0.02894 0.0868,0.0124 0.0744,-0.02894 0.13642,-0.107487 0.13642,-0.21084 0,-0.09508 -0.0785,-0.173632 -0.19017,-0.173632 -0.10748,0 -0.21497,0.119889 -0.31832,0.297656 z m 0,0"
       style="fill:#000000;fill-opacity:1;fill-rule:nonzero;stroke:none;stroke-width:0.352778"
       aria-label="Pier" />
    <path
       id="path77"
       d="m 173.7611,97.036341 c -0.20671,-0.107487 -0.47542,-0.285254 -0.65319,-0.409277 0.339,-0.107487 0.62425,-0.450619 0.62425,-0.921908 0,-0.558105 -0.42168,-0.942578 -0.93844,-0.942578 -0.65319,0 -0.99219,0.479557 -0.99219,0.979785 0,0.248047 0.0909,0.483691 0.25218,0.657324 0.1571,0.173633 0.42168,0.272852 0.59945,0.285254 0.35966,0.285254 0.57877,0.380339 0.66972,0.405143 0.10749,0.02894 0.27285,0.04548 0.41341,0.02067 z m -1.0666,-0.475423 c -0.29352,-0.08268 -0.45889,-0.438216 -0.45889,-0.884701 0,-0.44235 0.19017,-0.79375 0.50023,-0.79375 0.33486,0 0.56224,0.343132 0.56224,0.905371 0,0.467155 -0.16537,0.7028 -0.29766,0.756543 -0.0207,-0.01654 -0.0455,-0.03721 -0.0744,-0.05374 z m 2.66753,-0.07028 -0.062,-0.0083 c -0.10335,-0.0083 -0.11989,-0.03721 -0.11989,-0.186036 v -0.921907 c -0.062,0.0124 -0.15709,0.0248 -0.25631,0.03307 -0.10335,0.0083 -0.20257,0.01654 -0.28112,0.02067 v 0.08268 l 0.0868,0.01654 c 0.0744,0.02067 0.0909,0.03721 0.0909,0.169499 v 0.686263 c -0.062,0.06201 -0.12403,0.07855 -0.20258,0.07855 -0.0951,0 -0.19017,-0.06201 -0.19017,-0.248047 v -0.409277 c 0,-0.165365 0,-0.310059 0.008,-0.429948 -0.0786,0.0124 -0.1819,0.0248 -0.27285,0.03307 -0.0951,0.0083 -0.18603,0.01654 -0.25631,0.02067 v 0.08268 l 0.0661,0.01654 c 0.0744,0.02067 0.0909,0.03721 0.0909,0.165365 v 0.587044 c 0,0.248047 0.13643,0.401009 0.37207,0.401009 0.0868,0 0.16123,-0.02894 0.23978,-0.08268 0.0661,-0.03721 0.0951,-0.06615 0.1447,-0.107487 v 0.169499 l 0.0248,0.02067 c 0.0827,-0.02067 0.17363,-0.03721 0.26458,-0.05374 0.0909,-0.02067 0.1695,-0.03721 0.25218,-0.04548 z m 1.35599,0.02894 -0.0289,-0.09095 c -0.0331,0.01654 -0.062,0.02481 -0.0992,0.02481 -0.0455,0 -0.0909,-0.03307 -0.0909,-0.169499 v -0.467155 c 0,-0.157096 -0.0248,-0.28112 -0.1447,-0.37207 -0.0786,-0.05788 -0.16123,-0.08268 -0.27698,-0.08268 -0.16123,0.03307 -0.36381,0.128157 -0.47129,0.202571 -0.062,0.04548 -0.0992,0.08268 -0.0992,0.136426 0,0.07028 0.10335,0.14056 0.17777,0.14056 0.0579,0 0.0992,-0.02481 0.11989,-0.09922 0.0207,-0.08682 0.0496,-0.152962 0.0785,-0.194303 0.0248,-0.03307 0.0579,-0.04961 0.0951,-0.04961 0.10335,0 0.17363,0.09922 0.17363,0.276986 v 0.08682 c -0.0661,0.05374 -0.28525,0.124024 -0.45062,0.186036 -0.14883,0.05374 -0.21497,0.124023 -0.21497,0.272851 0,0.173633 0.14056,0.359668 0.38034,0.359668 0.0579,0 0.19017,-0.09095 0.29765,-0.165365 0.0124,0.03721 0.0289,0.07442 0.0703,0.107487 0.0372,0.03307 0.0951,0.05788 0.17364,0.05788 z m -0.56637,-0.09508 c -0.0455,0.03307 -0.0785,0.04547 -0.11989,0.04547 -0.0661,0 -0.1695,-0.06201 -0.1695,-0.214974 0,-0.09922 0.0455,-0.152962 0.13229,-0.194303 0.0579,-0.03307 0.10336,-0.06201 0.1571,-0.09095 z m 2.10116,0.05788 -0.062,-0.0041 c -0.11989,-0.01654 -0.13642,-0.0248 -0.13642,-0.186035 v -1.637109 c -0.1447,0.04547 -0.36794,0.08268 -0.54984,0.103353 v 0.08682 c 0.17363,0.02481 0.19017,0.03721 0.19017,0.19017 v 0.338997 c -0.062,-0.0083 -0.0951,-0.0124 -0.11576,-0.0124 -0.44235,0 -0.77721,0.314192 -0.77721,0.698665 0,0.42168 0.33486,0.620117 0.57878,0.620117 0.0289,0 0.0703,-0.0083 0.14056,-0.04961 l 0.17363,-0.111621 v 0.165364 c 0.22324,-0.06615 0.48782,-0.09922 0.5581,-0.111621 z m -0.5581,-0.06201 c -0.062,0.04134 -0.10749,0.04548 -0.1571,0.04548 -0.13229,0 -0.33486,-0.132292 -0.33486,-0.479557 0,-0.429948 0.21911,-0.504362 0.28525,-0.504362 0.0827,0 0.16123,0.04547 0.20671,0.144694 z m 1.19786,-0.760677 V 95.35789 c -0.17777,0.05374 -0.34727,0.08682 -0.51677,0.107487 v 0.08268 c 0.1323,0.02894 0.15297,0.04134 0.15297,0.186035 v 0.620117 c 0,0.173633 -0.0248,0.186035 -0.1819,0.202572 v 0.09095 h 0.77721 v -0.09095 c -0.21911,-0.01654 -0.23151,-0.02894 -0.23151,-0.202572 v -0.529167 c 0.0455,-0.111621 0.10335,-0.148828 0.15709,-0.148828 0.0455,0 0.0827,0.02067 0.1323,0.05788 0.0165,0.02067 0.0455,0.02894 0.0868,0.0124 0.0744,-0.02894 0.13643,-0.107487 0.13643,-0.21084 0,-0.09508 -0.0786,-0.173633 -0.19017,-0.173633 -0.10749,0 -0.21497,0.11989 -0.31833,0.297657 z m 1.83865,0.859896 -0.0289,-0.09095 c -0.0331,0.01654 -0.062,0.02481 -0.0992,0.02481 -0.0455,0 -0.0909,-0.03307 -0.0909,-0.169499 v -0.467155 c 0,-0.157096 -0.0248,-0.28112 -0.1447,-0.37207 -0.0785,-0.05788 -0.16123,-0.08268 -0.27698,-0.08268 -0.16123,0.03307 -0.3638,0.128157 -0.47129,0.202571 -0.062,0.04548 -0.0992,0.08268 -0.0992,0.136426 0,0.07028 0.10335,0.14056 0.17777,0.14056 0.0579,0 0.0992,-0.02481 0.11989,-0.09922 0.0207,-0.08682 0.0496,-0.152962 0.0786,-0.194303 0.0248,-0.03307 0.0579,-0.04961 0.0951,-0.04961 0.10335,0 0.17363,0.09922 0.17363,0.276986 v 0.08682 c -0.0661,0.05374 -0.28525,0.124024 -0.45062,0.186036 -0.14882,0.05374 -0.21497,0.124023 -0.21497,0.272851 0,0.173633 0.14056,0.359668 0.38034,0.359668 0.0579,0 0.19017,-0.09095 0.29766,-0.165365 0.0124,0.03721 0.0289,0.07442 0.0703,0.107487 0.0372,0.03307 0.0951,0.05788 0.17363,0.05788 z m -0.56638,-0.09508 c -0.0455,0.03307 -0.0786,0.04547 -0.11989,0.04547 -0.0661,0 -0.1695,-0.06201 -0.1695,-0.214974 0,-0.09922 0.0455,-0.152962 0.1323,-0.194303 0.0579,-0.03307 0.10335,-0.06201 0.15709,-0.09095 z m 2.12184,0.223242 v -0.09095 c -0.14883,-0.02067 -0.16537,-0.02894 -0.16537,-0.206706 v -0.533301 c 0,-0.285254 -0.14056,-0.454752 -0.36793,-0.454752 -0.0827,0 -0.13643,0.0248 -0.22325,0.07855 -0.062,0.04134 -0.11989,0.08682 -0.17363,0.124023 V 95.35789 c -0.1695,0.04548 -0.35553,0.08682 -0.51263,0.107487 v 0.07855 c 0.13643,0.02894 0.14883,0.03721 0.14883,0.206705 v 0.587045 c 0,0.190169 -0.0124,0.194303 -0.18604,0.219108 v 0.09095 h 0.68213 v -0.09095 c -0.11989,-0.01654 -0.13229,-0.02894 -0.13229,-0.202572 V 95.66795 c 0.0744,-0.05788 0.13643,-0.08682 0.20671,-0.08682 0.10335,0 0.19843,0.06201 0.19843,0.264583 v 0.483691 c 0,0.198438 -0.0165,0.21084 -0.13642,0.227377 v 0.09095 z m 0.97771,-0.103353 -0.0248,-0.09922 c -0.0537,0.02067 -0.0992,0.03307 -0.14469,0.03307 -0.0579,0 -0.16123,-0.0248 -0.16123,-0.248046 v -0.698666 h 0.26045 c 0.0455,-0.02067 0.0496,-0.103353 0.0165,-0.136425 h -0.27699 v -0.405144 l -0.0372,-0.02067 -0.32246,0.219108 v 0.206705 h -0.11576 l -0.0785,0.103353 0.0124,0.03307 h 0.1819 v 0.79375 c 0,0.256315 0.12816,0.355534 0.34726,0.355534 0.0207,0 0.0662,-0.0124 0.11162,-0.02894 z m 0,0"
       style="fill:#000000;fill-opacity:1;fill-rule:nonzero;stroke:none;stroke-width:0.352778"
       aria-label="Quadrant" />
    <path
       id="path78"
       d="m 134.48184,95.778535 c 0.11162,-0.0248 0.24391,-0.08682 0.24391,-0.235644 0,-0.07855 -0.0331,-0.144694 -0.0909,-0.181901 -0.062,-0.03721 -0.14056,-0.05374 -0.26045,-0.05374 h -0.45888 v 0.05788 c 0.11162,0.0083 0.12402,0.02067 0.12402,0.152962 v 0.603581 c 0,0.132291 -0.0124,0.144694 -0.13643,0.157096 v 0.05374 h 0.40101 c 0.13229,0 0.25218,-0.02067 0.33073,-0.06615 0.0909,-0.04961 0.14883,-0.132292 0.14883,-0.239779 0,-0.148828 -0.11989,-0.223242 -0.30179,-0.243913 z m -0.23565,-0.01654 v -0.301791 c 0,-0.03307 0.004,-0.05374 0.0165,-0.06614 0.008,-0.0083 0.0331,-0.02067 0.0703,-0.02067 0.0868,0 0.1695,0.05374 0.1695,0.198437 0,0.128158 -0.0661,0.19017 -0.21911,0.19017 z m 0,0.06201 h 0.0331 c 0.17776,0 0.27285,0.07441 0.27285,0.223242 0,0.152962 -0.0992,0.219108 -0.19017,0.219108 -0.0827,0 -0.11576,-0.03307 -0.11576,-0.148828 z m 1.33636,0.438216 -0.0165,-0.04961 c -0.0165,0.0083 -0.0331,0.0124 -0.0537,0.0124 -0.0248,0 -0.0496,-0.02067 -0.0496,-0.09508 v -0.260449 c 0,-0.08682 -0.0124,-0.152962 -0.0827,-0.206706 -0.0413,-0.03307 -0.0868,-0.04547 -0.15297,-0.04547 -0.091,0.01654 -0.20257,0.07028 -0.26045,0.111621 -0.0372,0.02894 -0.0579,0.04961 -0.0579,0.07441 0,0.04134 0.0579,0.07855 0.0992,0.07855 0.0331,0 0.0579,-0.0124 0.0661,-0.05374 0.0165,-0.04548 0.0289,-0.08268 0.0455,-0.107487 0.0165,-0.01654 0.0331,-0.02894 0.0537,-0.02894 0.0579,0 0.0951,0.05788 0.0951,0.157096 v 0.04548 c -0.0372,0.03307 -0.15709,0.07028 -0.25218,0.103352 -0.0785,0.03307 -0.11989,0.07028 -0.11989,0.152963 0,0.09508 0.0827,0.202571 0.21498,0.202571 0.0289,0 0.10335,-0.05374 0.16536,-0.09508 0.004,0.02067 0.0165,0.04134 0.0372,0.06201 0.0207,0.01654 0.0537,0.03307 0.0992,0.03307 z m -0.3142,-0.05374 c -0.0248,0.01654 -0.0413,0.02481 -0.0661,0.02481 -0.0372,0 -0.0951,-0.03307 -0.0951,-0.119889 0,-0.05374 0.0248,-0.08268 0.0744,-0.107487 0.0331,-0.01654 0.0579,-0.03307 0.0868,-0.04961 z m 0.84956,-0.384472 c -0.004,-0.02894 -0.0248,-0.14056 -0.0372,-0.177767 -0.0372,-0.01654 -0.0786,-0.02894 -0.15296,-0.02894 -0.16537,0 -0.26459,0.09922 -0.26459,0.223242 0,0.136426 0.12816,0.198438 0.20257,0.235645 0.0951,0.04547 0.11576,0.08268 0.11576,0.128157 0,0.04961 -0.0331,0.08682 -0.0827,0.08682 -0.0951,0 -0.1695,-0.111622 -0.20671,-0.21084 l -0.0455,0.0083 c 0,0.07441 0.0165,0.186035 0.0248,0.21084 0.0331,0.02067 0.11576,0.05374 0.19844,0.05374 0.13229,0 0.28112,-0.07855 0.28112,-0.235644 0,-0.124024 -0.0827,-0.177767 -0.21084,-0.231511 -0.0827,-0.03721 -0.11576,-0.07441 -0.11576,-0.124023 0,-0.04961 0.0372,-0.08268 0.0786,-0.08268 0.0744,0 0.12402,0.06615 0.16537,0.16123 z m 0.30076,-0.305925 c 0.0662,0 0.11576,-0.04961 0.11576,-0.111621 0,-0.06201 -0.0496,-0.107487 -0.11162,-0.107487 -0.062,0 -0.11163,0.04547 -0.11163,0.107487 0,0.06201 0.0496,0.111621 0.10749,0.111621 z m 0.21911,0.814421 v -0.04961 c -0.0951,-0.0124 -0.10335,-0.02067 -0.10335,-0.128157 v -0.537435 c -0.0909,0.02481 -0.19431,0.04547 -0.28939,0.05788 v 0.04548 c 0.0744,0.0124 0.0868,0.01654 0.0868,0.119889 v 0.314193 c 0,0.111621 -0.008,0.115755 -0.0992,0.128157 v 0.04961 z m 0.43925,0 v -0.04961 c -0.0992,-0.0083 -0.10749,-0.01654 -0.10749,-0.124023 v -0.93431 c -0.0868,0.0248 -0.2067,0.04547 -0.29352,0.05788 v 0.04547 c 0.0868,0.0124 0.0951,0.01654 0.0951,0.111621 v 0.719336 c 0,0.103353 -0.008,0.107487 -0.10336,0.124023 v 0.04961 z m 0.24288,-0.814421 c 0.0661,0 0.11575,-0.04961 0.11575,-0.111621 0,-0.06201 -0.0496,-0.107487 -0.11162,-0.107487 -0.062,0 -0.11162,0.04547 -0.11162,0.107487 0,0.06201 0.0496,0.111621 0.10749,0.111621 z m 0.21911,0.814421 v -0.04961 c -0.0951,-0.0124 -0.10336,-0.02067 -0.10336,-0.128157 v -0.537435 c -0.091,0.02481 -0.1943,0.04547 -0.28938,0.05788 v 0.04548 c 0.0744,0.0124 0.0868,0.01654 0.0868,0.119889 v 0.314193 c 0,0.111621 -0.008,0.115755 -0.0992,0.128157 v 0.04961 z m 0.64182,-0.19017 c -0.0579,0.04961 -0.10335,0.06615 -0.1695,0.06615 -0.0661,0 -0.21497,-0.07028 -0.21497,-0.28112 0,-0.165364 0.0703,-0.227376 0.13229,-0.227376 0.0413,0 0.0951,0.02481 0.15709,0.08268 0.0165,0.0124 0.0248,0.01654 0.0372,0.01654 0.0248,0 0.0661,-0.04134 0.0661,-0.08682 0,-0.02067 -0.004,-0.04134 -0.0289,-0.05374 -0.0248,-0.02481 -0.0786,-0.04134 -0.13643,-0.04134 -0.062,0 -0.16123,0.02067 -0.26458,0.09922 -0.0992,0.07441 -0.16123,0.186035 -0.16123,0.297656 0,0.173633 0.12816,0.338997 0.34313,0.338997 0.0951,0 0.19844,-0.07028 0.26872,-0.173633 z m 0.76688,0.11989 -0.0165,-0.04961 c -0.0165,0.0083 -0.0331,0.0124 -0.0537,0.0124 -0.0248,0 -0.0496,-0.02067 -0.0496,-0.09508 v -0.260449 c 0,-0.08682 -0.0124,-0.152962 -0.0827,-0.206706 -0.0413,-0.03307 -0.0868,-0.04547 -0.15297,-0.04547 -0.091,0.01654 -0.20257,0.07028 -0.26044,0.111621 -0.0372,0.02894 -0.0579,0.04961 -0.0579,0.07441 0,0.04134 0.0579,0.07855 0.0992,0.07855 0.0331,0 0.0579,-0.0124 0.0661,-0.05374 0.0165,-0.04548 0.0289,-0.08268 0.0455,-0.107487 0.0165,-0.01654 0.0331,-0.02894 0.0537,-0.02894 0.0579,0 0.0951,0.05788 0.0951,0.157096 v 0.04548 c -0.0372,0.03307 -0.1571,0.07028 -0.25219,0.103352 -0.0785,0.03307 -0.11988,0.07028 -0.11988,0.152963 0,0.09508 0.0827,0.202571 0.21497,0.202571 0.0289,0 0.10335,-0.05374 0.16536,-0.09508 0.004,0.02067 0.0165,0.04134 0.0372,0.06201 0.0207,0.01654 0.0537,0.03307 0.0992,0.03307 z m -0.3142,-0.05374 c -0.0248,0.01654 -0.0413,0.02481 -0.0661,0.02481 -0.0372,0 -0.0951,-0.03307 -0.0951,-0.119889 0,-0.05374 0.0248,-0.08268 0.0744,-0.107487 0.0331,-0.01654 0.0579,-0.03307 0.0868,-0.04961 z m 0,0"
       style="fill:#000000;fill-opacity:1;fill-rule:nonzero;stroke:none;stroke-width:0.352778"
       aria-label="Basilica" />
  </g>
</svg>
